<?xml version="1.0" encoding="UTF-8" standalone="no"?>
<!-- Created with Inkscape (http://www.inkscape.org/) -->

<svg
   width="290.03973mm"
   height="305.659mm"
   viewBox="0 0 290.03973 305.659"
   version="1.1"
   id="svg67506"
><defs
     id="defs67503" /><g
     id="layer1"
     transform="translate(468.6627,23.030198)"><g
       id="g70436"
       transform="matrix(0.26458333,0,0,0.26458333,-531.64383,-519.52691)"><path
         fill="none"
         stroke-width="76.59"
         stroke-linecap="butt"
         stroke-linejoin="miter"
         stroke="#536f3c"
         stroke-opacity="1"
         stroke-miterlimit="4"
         d="m 13021.797,25371.992 c -2.578,29.414 55.508,74.492 39.922,97.227 -6.328,8.984 -18.516,12.265 -29.531,7.968 -150.274,-60.976 -296.875,-51.875 -439.571,27.227"
         transform="matrix(0.1,0,0,-0.1,0,5000)"
         id="path69098" /><path
         fill="none"
         stroke-width="76.59"
         stroke-linecap="butt"
         stroke-linejoin="miter"
         stroke="#738440"
         stroke-opacity="1"
         stroke-miterlimit="4"
         d="m 12592.617,25504.414 c 6.602,52.891 -4.336,97.383 -32.929,133.672 -42.383,53.828 -65.469,85.117 -69.297,93.828 -46.797,104.688 -74.61,213.789 -83.477,327.383 -3.906,46.992 2.5,103.203 19.102,168.515 14.297,55.704 26.679,111.797 37.187,168.477 0.195,1.523 5.508,20.195 15.703,55.898 12.696,44.219 -6.914,69.727 -59.023,76.602 -13.477,1.797 -25.391,6.328 -34.102,13.008 -131.992,102.695 -171.679,239.922 -119.062,411.719 20.39,67.382 30.976,154.687 31.797,261.875 0.195,28.828 -11.914,54.804 -32.618,69.296 l -286.015,204.219 c -19.688,13.985 -46.367,18.399 -72.774,11.797 -57.421,-14.297 -113.515,-25.312 -168.125,-32.891 -60.195,-8.203 -115,-0.898 -164.296,21.797 -144.493,66.407 -242.383,177.5 -293.672,333.203 -16.797,51.29 -38.711,96.602 -65.508,135.899 -52.305,77.07 -79.922,118.203 -82.695,123.281 -26.797,51.094 -53.008,104.219 -78.516,159.297 -6.406,13.32 -13.008,13.516 -19.883,0.43 -54.922,-103.125 -101.133,-210.117 -138.633,-320.938 -43.984,-129.883 -140.781,-228.476 -290.664,-295.586 -128.203,-57.695 -258.398,-76.211 -390.625,-55.508 -81.406,12.696 -168.086,34.297 -260.0389,64.727 -86.289,28.594 -166.3281,70.703 -240.0781,126.289 -8.8672,6.68 -21.3672,6.094 -29.4922,-1.484 -87.3047,-80.703 -190.3515,-129.219 -309.0234,-145.508 -222.6563,-30.625 -433.7891,1.094 -633.4375,95.391 -11.7578,5.507 -24.4922,7.617 -36.7578,6.093 -61.25,-7.89 -122.0313,-19.609 -182.2657,-34.883 -138.6328,-35.195 -278.9062,-42.031 -420.8593,-20.312 -71.9922,11.016 -115,-18.906 -129.0625,-89.609 -11.211,-55.899 -17.2266,-85 -18.0079,-87.305 -40.3125,-116.875 -112.1875,-202.383 -215.5859,-256.602 -44.9219,-23.398 -61.0156,-59.687 -48.2422,-108.672 20.4297,-79.414 23.086,-150.625 8.0469,-213.71 -8.2031,-33.711 -4.7266,-66.29 10.3125,-97.696"
         transform="matrix(0.1,0,0,-0.1,0,5000)"
         id="path69100" /><path
         fill="none"
         stroke-width="76.59"
         stroke-linecap="butt"
         stroke-linejoin="miter"
         stroke="#5c763f"
         stroke-opacity="1"
         stroke-miterlimit="4"
         d="m 7710,26806.406 c -14.8047,-78.594 -41.6016,-151.289 -80.3906,-218.203 -36.25,-62.305 -91.4063,-112.617 -165.4688,-150.898 -276.4844,-142.188 -571.0937,-168.086 -883.8281,-77.813"
         transform="matrix(0.1,0,0,-0.1,0,5000)"
         id="path69102" /><path
         fill="none"
         stroke-width="76.59"
         stroke-linecap="butt"
         stroke-linejoin="miter"
         stroke="#738440"
         stroke-opacity="1"
         stroke-miterlimit="4"
         d="m 6580.3125,26359.492 c -210.3516,172.891 -368.6328,382.617 -474.8438,629.219 -49.5312,114.883 -88.2031,185.586 -116.0546,212.187 -67.3829,64.297 -153.9454,84.102 -259.6094,59.297 -11.5625,-2.695 -21.7578,-10.078 -28.3594,-20.586 -70.9766,-108.515 -156.7578,-200.82 -257.3437,-276.914 -81.1719,-61.797 -175.3907,-100.586 -282.6172,-116.406 -125.8594,-18.906 -256.2891,-21.484 -391.3672,-7.695 -49.0235,5.117 -81.1719,-15.782 -96.4844,-62.813 -107.7344,-333.164 -330.625,-481.992 -668.6328,-446.484 -82.9687,8.906 -131.6016,53.984 -145.8984,135.195 -10.7422,61.016 -20.9375,122.11 -30.625,183.399 -1.7969,11.406 -10.4688,20.312 -21.4844,22.226 -65.5859,11.172 -128.2813,6.485 -188.0078,-14.219 -45.4297,-15.507 -81.9531,-49.101 -109.5313,-100.703 -103.6328,-195.312 -166.0547,-403.476 -187.2656,-624.609 -6.875,-70.899 -24.375,-126.602 -52.4609,-166.875 -109.0235,-157.813 -269.336,-225.625 -480.9766,-203.399 -47.2266,5.079 -62.5781,-15.507 -97.0312,-50.429"
         transform="matrix(0.1,0,0,-0.1,0,5000)"
         id="path69104" /><path
         fill="none"
         stroke-width="76.59"
         stroke-linecap="butt"
         stroke-linejoin="miter"
         stroke="#536f3c"
         stroke-opacity="1"
         stroke-miterlimit="4"
         d="m 3846.0547,27372.383 c 54.9219,-43.086 112.1094,-54.766 171.5625,-35.196 24.0234,8.204 66.9141,40 128.6719,95.43 187.6562,168.477 400.0781,181.094 637.2265,37.891 44.1797,-26.797 73.3985,-15.391 87.6953,34.375 70.2344,245.117 235.1563,405.312 494.7657,480.625"
         transform="matrix(0.1,0,0,-0.1,0,5000)"
         id="path69106" /><path
         fill="none"
         stroke-width="76.59"
         stroke-linecap="butt"
         stroke-linejoin="miter"
         stroke="#5e7740"
         stroke-opacity="1"
         stroke-miterlimit="4"
         d="m 5365.9766,27985.508 c 177.4609,26.094 337.7734,-4.102 480.9765,-90.313 45.1953,-27.383 85.4297,-21.211 120.6641,18.321 53.8672,60.273 138.75,110.781 254.6484,151.679 44.9219,15.821 68.1641,47.617 69.6875,95.313 3.086,97.578 31.0156,206.211 83.8672,325.898"
         transform="matrix(0.1,0,0,-0.1,0,5000)"
         id="path69108" /><path
         fill="none"
         stroke-width="76.59"
         stroke-linecap="butt"
         stroke-linejoin="miter"
         stroke="#718340"
         stroke-opacity="1"
         stroke-miterlimit="4"
         d="m 6375.8203,28486.406 c 59.2188,106.485 137.4609,192.305 234.7656,257.383 19.2969,12.93 30.0391,35.313 27.9297,58.203 -40.5859,422.5 145.5469,671.289 558.3594,746.289 3.3594,0.703 6.6406,1.719 9.7656,3.125 21.875,9.688 31.875,35.703 22.1485,57.578 -1.3672,3.125 -3.086,6.016 -5.1172,8.711 -29.8828,38.789 -42.2657,80.899 -37.1485,126.289 3.8282,35.508 20.5469,73.321 50.1563,113.399 99.3359,133.828 238.2031,172.422 416.6797,116.015 11.9922,-3.789 15.2734,-0.117 9.9218,11.094 -41.875,90.117 -72.5,192.422 -91.875,306.797 -0.039,0.117 -0.078,0.43 -0.1171,0.508 -2.7344,14.687 -17.1875,24.492 -32.0704,21.797 -0.1171,-0.08 -0.2734,-0.08 -0.3906,-0.08 -147.539,-30.43 -281.9531,-37.305 -403.2422,-20.704 -77.8515,10.704 -140.8984,-18.828 -189.1797,-88.515 -12.7734,-18.594 -29.6093,-68.789 -50.5468,-150.508 -15.8203,-61.68 -33.6719,-111.172 -53.5938,-148.203 -148.3203,-275.391 -385.7812,-400.391 -712.3047,-374.883 -1.5234,0 -38.9062,7.109 -112.1875,21.094 -109.0234,20.898 -199.9218,-21.68 -272.6562,-127.891 -62.5391,-91.211 -150.2344,-142.5 -263.086,-154.023 -55.4296,-5.781 -114.7656,-7.071 -178.0859,-3.789 -58.4375,3.125 -117.0312,15.312 -175.7812,36.797 -43.125,15.507 -63.0469,46.328 -59.7266,92.304 3.0469,39.805 -9.0625,78.907 -36.3672,117.188 -43.1641,60.508 -88.7109,78.125 -136.7187,52.812 -27.8125,-14.609 -51.3282,-46.484 -70.4688,-95.703 -21.4453,-55.703 -42.6172,-112.773 -63.5547,-171.211 -7.9297,-22.265 -23.3984,-40.976 -43.6719,-52.89 -98.5546,-57.11 -202.6953,-92.11 -312.4609,-104.883 -64.1016,-7.617 -91.9141,-43.399 -83.5156,-107.227 24.2578,-187.89 -32.1485,-344.765 -169.2578,-470.664 -8.5547,-8.008 -13.3985,-19.101 -13.3985,-30.625 v -18.398"
         transform="matrix(0.1,0,0,-0.1,0,5000)"
         id="path69110" /><path
         fill="none"
         stroke-width="76.59"
         stroke-linecap="butt"
         stroke-linejoin="miter"
         stroke="#536f3c"
         stroke-opacity="1"
         stroke-miterlimit="4"
         d="m 4139.0234,28513.594 c -49.7656,-8.711 -88.0859,-18.711 -114.8828,-30.196 -168.75,-72.812 -337.8906,-98.281 -507.3828,-76.601 -86.8359,11.211 -150.1562,16.289 -189.9609,15.312"
         transform="matrix(0.1,0,0,-0.1,0,5000)"
         id="path69112" /><path
         fill="none"
         stroke-width="76.59"
         stroke-linecap="butt"
         stroke-linejoin="miter"
         stroke="#4f6c35"
         stroke-opacity="1"
         stroke-miterlimit="4"
         d="m 6580.3125,26359.492 c -228.2422,-42.773 -409.2578,10.625 -543.0078,160.508 -48.0078,53.594 -71.25,44.414 -69.6875,-27.617 4.8437,-224.102 -106.6016,-326.094 -334.336,-305.977 -50.039,4.375 -82.9687,-17.187 -98.789,-64.687 -14.0235,-42.11 -38.1641,-78.125 -72.3828,-108.008 -28.8672,-25 -67.1485,-40.703 -114.8828,-47.109 -222.3829,-29.297 -409.7657,44.179 -562.1485,220.585 -1.914,2.227 -4.0625,4.219 -6.4453,5.821 -15.9375,11.289 -38.3594,7.383 -49.6094,-8.516 -1.6797,-2.383 -3.0468,-4.883 -4.1015,-7.578 -40.8203,-104.414 -110.0391,-191.602 -207.5391,-261.602 -41.875,-30.117 -94.2187,-46.601 -157.0312,-49.414 -77.8516,-3.789 -155.586,-7.812 -233.2032,-11.796 -12.0703,-0.821 -23.125,-6.993 -29.8437,-16.915 -204.5313,-298.671 -484.8438,-382.304 -840.9766,-250.781 -23.5156,8.711 -49.6484,6.406 -71.2109,-6.211 -96.5234,-56.601 -167.1094,-114.101 -211.7969,-172.304 -35.2344,-45.899 -90.1172,-86.407 -164.6484,-121.407 -10.7031,-5.078 -23.3203,-3.593 -32.1875,3.907 -38.0078,31.406 -62.5391,68.125 -73.5156,110.195 -11.7579,45.195 29.5703,71.328 -16.1329,71.797"
         transform="matrix(0.1,0,0,-0.1,0,5000)"
         id="path69114" /><path
         fill="none"
         stroke-width="76.59"
         stroke-linecap="butt"
         stroke-linejoin="miter"
         stroke="#557541"
         stroke-opacity="1"
         stroke-miterlimit="4"
         d="m 10984.219,24259.805 -268.008,-47.813"
         transform="matrix(0.1,0,0,-0.1,0,5000)"
         id="path69116" /><path
         fill="none"
         stroke-width="76.59"
         stroke-linecap="butt"
         stroke-linejoin="miter"
         stroke="#7d8973"
         stroke-opacity="1"
         stroke-miterlimit="4"
         d="m 10563.008,24282.109 -66.992,57.383"
         transform="matrix(0.1,0,0,-0.1,0,5000)"
         id="path69118" /><path
         fill="none"
         stroke-width="76.59"
         stroke-linecap="butt"
         stroke-linejoin="miter"
         stroke="#557541"
         stroke-opacity="1"
         stroke-miterlimit="4"
         d="m 10496.016,24339.492 c -14.102,24.492 -36.407,34.102 -67.11,28.711"
         transform="matrix(0.1,0,0,-0.1,0,5000)"
         id="path69120" /><path
         fill="none"
         stroke-width="76.59"
         stroke-linecap="butt"
         stroke-linejoin="miter"
         stroke="#383e28"
         stroke-opacity="1"
         stroke-miterlimit="4"
         d="m 10430.781,24368.516 c 7.422,64.882 -8.672,137.773 -44.687,219.492"
         transform="matrix(0.1,0,0,-0.1,0,5000)"
         id="path69122" /><path
         fill="none"
         stroke-width="76.59"
         stroke-linecap="butt"
         stroke-linejoin="miter"
         stroke="#305730"
         stroke-opacity="1"
         stroke-miterlimit="4"
         d="m 12066.016,25628.906 c -158.711,-201.719 -342.813,-374.922 -552.227,-519.687 -74.297,-51.328 -140.195,-80.117 -197.891,-86.524 -84.296,-9.687 -158.007,11.602 -221.015,63.907 -47.969,40.117 -91.992,93.593 -132.07,160.507 -36.329,60.196 -59.297,127.11 -69.024,200.586 -10.391,77.696 12.617,164.805 69.024,261.602 67.07,115.586 50.39,219.219 -50.196,310.586 -9.023,8.008 -21.211,11.914 -33.711,10.703 -78.398,-8.203 -155.703,-21.992 -232.109,-41.367 -89.297,-22.93 -160.899,-30.508 -214.805,-22.617 -205.508,30.39 -371.211,141.093 -497.0701,332.109 -0.7422,1.094 -1.6016,2.07 -2.5781,3.086 -7.1094,6.797 -18.4766,6.719 -25.1954,-0.195 -0.9375,-1.016 -1.7578,-2.11 -2.4609,-3.321 -97.0312,-163.672 -178.4766,-334.062 -244.3359,-511.289"
         transform="matrix(0.1,0,0,-0.1,0,5000)"
         id="path69124" /><path
         fill="none"
         stroke-width="76.59"
         stroke-linecap="butt"
         stroke-linejoin="miter"
         stroke="#305730"
         stroke-opacity="1"
         stroke-miterlimit="4"
         d="m 9383.8672,25496.406 c -25.5078,-2.617 -50.6641,-1.601 -75.4297,3.008 -20.1562,3.594 -41.3672,14.57 -63.5547,32.969 -35,28.828 -71.875,55 -110.664,78.515 -9.9219,5.899 -15.2344,17.188 -13.4375,28.321 11.25,67.187 -1.9141,116.093 -39.4141,146.679 -104.9609,85.821 -174.5313,173.204 -208.7109,262.305 -38.0469,99.805 -105.0782,127.5 -201.0547,83.086 -134.2969,-61.797 -268.4375,-59.883 -402.5,5.82 -41.836,20.391 -77.9688,13.086 -108.3594,-21.914 -57.6953,-66.601 -116.5235,-131.289 -176.5235,-194.101 -68.164,-71.485 -137.3828,-119.297 -207.5781,-143.282 -109.0234,-37.031 -232.8125,-53.71 -371.4453,-50.117 -25.2734,0.508 -49.375,11.094 -67.0312,29.492 -78.125,81.211 -166.0547,132.5 -263.8282,153.907 -53.8672,11.797 -95.1172,-5.899 -123.7109,-52.813 -51.5625,-84.492 -127.6563,-151.562 -228.2422,-201.094 -46.7187,-23.203 -94.0625,-24.375 -142.0703,-3.398 -133.7891,57.93 -248.0078,146.914 -342.7344,266.914 -50.7812,64.297 -83.75,56.211 -98.789,-24.492 -14.8047,-79.219 -48.5157,-150 -101.0938,-212.617 -20.7031,-24.688 -74.1797,-79.18 -160.4687,-163.477 -68.9454,-67.422 -145,-125.703 -228.2422,-175 -68.6719,-40.625 -134.8047,-55.312 -198.3594,-44.023 -107.7344,18.906 -208.8281,79.023 -303.2813,180.312 -13.4765,14.688 -35.2343,18.477 -52.8515,9.18 -338.7891,-174.805 -673.2422,-351.602 -1003.3203,-530.274 -32.9688,-17.929 -58.3594,-10.117 -76.211,23.282 -7.0312,13.593 -17.2265,22.5 -26.0546,22.617 l -180.3516,6.875 c -13.5156,0.43 -27.6953,-8.281 -37.1484,-22.969 -43.9063,-68.125 -82.9688,-126.601 -117.1875,-175.43 -110.2735,-157.187 -262.1875,-245.273 -455.7032,-264.179 -217.0312,-21.211 -388.5937,54.804 -514.6875,227.89 -46.2109,63.321 -136.4453,205.118 -270.7422,425.391"
         transform="matrix(0.1,0,0,-0.1,0,5000)"
         id="path69126" /><path
         fill="none"
         stroke-width="76.59"
         stroke-linecap="butt"
         stroke-linejoin="miter"
         stroke="#325831"
         stroke-opacity="1"
         stroke-miterlimit="4"
         d="m 5365.9766,27985.508 c 0.5078,21.679 7.8125,40 21.8359,54.804 8.6328,8.594 11.7969,20.469 8.0469,30.274 -42.8907,118.203 -57.3047,239.805 -43.2813,364.922 1.25,11.875 -1.7187,24.297 -8.4375,35.195 -20.1562,32.695 -32.539,68.281 -37.1094,106.914"
         transform="matrix(0.1,0,0,-0.1,0,5000)"
         id="path69128" /><path
         fill="none"
         stroke-width="76.59"
         stroke-linecap="butt"
         stroke-linejoin="miter"
         stroke="#506c36"
         stroke-opacity="1"
         stroke-miterlimit="4"
         d="m 6375.8203,28486.406 c -165.4297,153.477 -276.7578,323.985 -333.9453,511.68 -21.6797,70.43 -59.1016,106.406 -112.1875,107.93 -42.3828,1.289 -78.75,-19.61 -109.1406,-62.813 -23.2422,-32.891 -38.9453,-69.101 -47.1094,-108.711 -15.8203,-75.586 -23.8672,-113.906 -24.1016,-114.883 -70.4687,-193.828 -217.9297,-274.492 -442.3047,-241.992"
         transform="matrix(0.1,0,0,-0.1,0,5000)"
         id="path69130" /><path
         fill="none"
         stroke-width="76.59"
         stroke-linecap="butt"
         stroke-linejoin="miter"
         stroke="#456432"
         stroke-opacity="1"
         stroke-miterlimit="4"
         d="m 5307.0312,28577.617 c -72.7734,45.391 -123.0859,25.977 -150.8984,-58.203 -34.9609,-106.211 -101.2109,-186.406 -198.75,-240.508 -82.4609,-45.703 -178.3203,-66.094 -287.5781,-61.289 -187.9297,8.164 -343.2813,86.367 -466.0547,234.766 -28.8672,34.726 -50.4297,55.117 -64.7266,61.211"
         transform="matrix(0.1,0,0,-0.1,0,5000)"
         id="path69132" /><path
         fill="none"
         stroke-width="76.59"
         stroke-linecap="butt"
         stroke-linejoin="miter"
         stroke="#476532"
         stroke-opacity="1"
         stroke-miterlimit="4"
         d="m 12592.617,25504.414 c -106.523,46.992 -184.219,123.984 -233.203,230.898 -1.133,2.383 -2.422,4.688 -3.906,6.797 -12.891,18.399 -38.711,22.891 -57.11,10 -1.992,-1.523 -3.906,-3.125 -5.585,-4.922 -65.899,-67.382 -141.524,-106.796 -226.797,-118.281"
         transform="matrix(0.1,0,0,-0.1,0,5000)"
         id="path69134" /><path
         fill="none"
         stroke-width="76.59"
         stroke-linecap="butt"
         stroke-linejoin="miter"
         stroke="#4f6c35"
         stroke-opacity="1"
         stroke-miterlimit="4"
         d="m 12066.016,25628.906 c -350,-28.594 -550.118,125.078 -600.43,460.977 -0.195,0.898 -0.391,1.719 -0.703,2.5 -2.266,6.328 -9.375,9.531 -15.664,7.226 -0.821,-0.312 -1.602,-0.703 -2.422,-1.211 -165.195,-108.281 -328.203,-103.906 -488.984,13.008 -65.118,47.5 -204.102,208.789 -417.032,483.985 -101.093,131.015 -214.375,250.625 -339.687,358.906 -0.508,0.39 -1.094,0.898 -1.602,1.289 -19.883,15.508 -49.101,11.914 -64.492,-7.969 -0.508,-0.625 -0.898,-1.211 -1.289,-1.836 -123.32,-174.297 -288.2422,-259.687 -494.8047,-256.172 -82.1875,1.602 -165.8204,20.977 -250.8204,58.282 -75.039,32.617 -151.25,75 -228.6328,127.109 -0.5468,0.391 -1.1328,0.703 -1.7578,1.094 -18.0859,10.703 -41.7578,4.492 -52.4219,-13.594 -0.3515,-0.508 -0.625,-1.094 -0.9375,-1.719 -62.3046,-120.976 -146.9531,-218.867 -253.9062,-293.672 -203.7109,-142.226 -422.5391,-167.226 -656.3672,-75.117 -167.7344,65.899 -301.1328,154.492 -400.1953,265.82 -28.8281,32.383 -56.7969,48.594 -83.8672,48.594"
         transform="matrix(0.1,0,0,-0.1,0,5000)"
         id="path69136" /><path
         fill="none"
         stroke-width="76.59"
         stroke-linecap="butt"
         stroke-linejoin="miter"
         stroke="#3f251e"
         stroke-opacity="1"
         stroke-miterlimit="4"
         d="m 9767.9297,24127.187 c 24.4922,19.219 -161.8359,-101.992 -160.7813,-76.406 0,0.821 -0.039,1.602 -0.1562,2.422 -1.2109,7.383 -9.0234,12.5 -17.3047,11.211 -0.8203,-0.195 -1.6406,-0.43 -2.4609,-0.625 -123.8282,-43.203 -240,-101.406 -348.4766,-174.687 -11.7187,-7.618 -24.6875,-9.883 -34.4922,-6.094 -15.039,6.094 -26.5234,17.109 -34.4531,32.89 -5.1953,10.196 -15.7031,15.704 -25.2734,13.516 -108.75,-26.133 -188.7891,-71.016 -240.1172,-134.805 -42.8907,-53.203 -88.5547,-103.711 -137.0703,-151.718 -7.8125,-7.579 -10.8594,-19.688 -8.0469,-31.797 4.8437,-20.899 2.9297,-37.11 -5.7422,-48.594 -180,-236.211 -306.1328,-496.914 -378.3594,-782.383 -5.625,-21.914 -26.9531,-97.617 -63.9453,-227.109 -21.9531,-76.289 -36.25,-154.024 -42.8906,-233.203 -15.0781,-185.821 -23.0078,-282.5 -23.75,-289.922 -8.9453,-82.383 -13.1641,-165.274 -12.6563,-248.477 0.7813,-101.094 0.1563,-183.711 -1.875,-247.812 -6.914,-196.485 1.6407,-429.805 25.625,-699.61 9.961,-110.273 29.1016,-201.875 57.461,-275 25,-64.297 37.7734,-97.07 38.2812,-98.398 56.1719,-167.969 91.2891,-270.078 105.3125,-306.289 39.8438,-103.711 103.6328,-201.016 191.4844,-291.914 13.0078,-13.477 21.8359,-26.094 26.4062,-37.891 13.0469,-34.18 4.1016,-49.883 -26.7968,-47.109 -12.7735,1.328 -25.1172,-0.781 -35.625,-6.094 -43.125,-21.68 -91.0157,-24.102 -143.5938,-7.305 -79.1406,25.625 -162.7344,37.735 -250.8203,36.407 -125.625,-1.485 -208.9844,-0.508 -250.0781,3.125 -188.3985,15.781 -389.2188,17.89 -602.3828,6.093 -74.2969,-4.101 -138.8672,-14.023 -193.75,-29.922 -22.7344,-6.601 -40.4688,-8.085 -53.2422,-4.57 -23.4766,6.68 -36.7578,21.485 -39.8438,44.492 -2.3047,17.578 4.7266,39.297 21.0938,65.078 90.8593,142.422 153.164,258.594 186.875,348.399 58.9843,157.305 124.4531,377.305 196.4453,659.922 15.5859,61.211 24.375,131.406 26.4062,210.586 1.7969,71.523 6.7578,142.695 14.961,213.711 17.8515,158.476 26.914,264.609 27.1875,318.203 1.0156,186.406 -11.7578,371.484 -38.3203,555.273 -30.8594,214.219 -64.5704,396.133 -101.0938,545.703 -49.0234,200.118 -119.6094,379.024 -211.7578,536.524 -163.6719,279.297 -422.0313,486.797 -775.0781,622.578 -37.0313,14.414 -75.4688,21.211 -115.2735,20.703 -30.1172,-0.195 -47.3437,16.602 -51.7187,50.625 -1.4844,12.578 -6.875,23.984 -15.3125,32.188 -46.211,44.882 -70.9766,99.882 -74.2969,165"
         transform="matrix(0.1,0,0,-0.1,0,5000)"
         id="path69138" /><path
         fill="none"
         stroke-width="76.59"
         stroke-linecap="butt"
         stroke-linejoin="miter"
         stroke="#9b8c82"
         stroke-opacity="1"
         stroke-miterlimit="4"
         d="m 8014.8828,25037.305 167.6953,-95 c 10.6641,-6.094 23.0469,-5.899 31.4063,0.312 65.5859,49.297 100.8203,115 105.7031,197.266 0.6641,12.5 -5.8594,23.711 -16.0937,27.5 l -114.8829,43.32"
         transform="matrix(0.1,0,0,-0.1,0,5000)"
         id="path69140" /><path
         fill="none"
         stroke-width="76.59"
         stroke-linecap="butt"
         stroke-linejoin="miter"
         stroke="#abbb8e"
         stroke-opacity="1"
         stroke-miterlimit="4"
         d="m 10974.609,24215 c 25.782,14.102 28.985,28.984 9.61,44.805"
         transform="matrix(0.1,0,0,-0.1,0,5000)"
         id="path69142" /><path
         fill="none"
         stroke-width="76.59"
         stroke-linecap="butt"
         stroke-linejoin="miter"
         stroke="#383e28"
         stroke-opacity="1"
         stroke-miterlimit="4"
         d="m 9383.8672,25496.406 c 30.1172,-76.406 12.1484,-110.195 -53.9844,-101.523 -12.3828,1.601 -24.1406,-2.969 -30.2344,-11.875 l -40.2343,-58.906"
         transform="matrix(0.1,0,0,-0.1,0,5000)"
         id="path69144" /><path
         fill="none"
         stroke-width="76.59"
         stroke-linecap="butt"
         stroke-linejoin="miter"
         stroke="#383e28"
         stroke-opacity="1"
         stroke-miterlimit="4"
         d="m 8664.3359,25182.695 -243.2031,38.321 c -9.375,1.679 -16.875,9.101 -18.75,18.789 l -6.875,35.586 c -1.9531,9.804 -11.4453,19.804 -25.3125,26.406 -96.7187,46.289 -157.2265,15.898 -181.4844,-91.094"
         transform="matrix(0.1,0,0,-0.1,0,5000)"
         id="path69146" /><path
         fill="none"
         stroke-width="76.59"
         stroke-linecap="butt"
         stroke-linejoin="miter"
         stroke="#2f3723"
         stroke-opacity="1"
         stroke-miterlimit="4"
         d="m 4833.3203,24379.687 c -26.5625,-1.484 -55.4297,-0.976 -86.5625,1.524 -18.6328,1.601 -45.9375,8.984 -81.9531,22.187 -47.461,17.383 -93.5547,20.196 -138.2422,8.516 -22.5391,-6.133 -46.4453,3.867 -57.8125,24.102 -32.6953,57.187 -72.3828,59.101 -119.1016,5.703"
         transform="matrix(0.1,0,0,-0.1,0,5000)"
         id="path69148" /><path
         fill="none"
         stroke-width="76.59"
         stroke-linecap="butt"
         stroke-linejoin="miter"
         stroke="#748742"
         stroke-opacity="1"
         stroke-miterlimit="4"
         d="m 9359.7656,29060.898 c -16.875,-98.086 -53.75,-162.187 -110.7031,-192.304 -210.5859,-111.289 -402.3437,-87.188 -575.1562,72.422 -1.0547,0.898 -2.1485,1.796 -3.3204,2.5 -11.289,7.265 -26.6015,3.984 -33.8671,-7.422 -0.7032,-1.094 -1.3672,-2.305 -1.875,-3.477 -36.7579,-88.906 -83.4766,-172.617 -140.1563,-251.211 -31.9141,-44.492 -50.4297,-78.789 -55.5469,-103.125 -12.7734,-61.992 18.6328,-96.875 94.2188,-104.492 67.1484,-6.602 163.3984,0.43 288.75,21.094 142.4219,23.398 236.914,42.734 283.3594,57.812 128.9453,41.289 238.9453,116.719 330.1171,225.899 76.3282,91.406 108.4766,197.422 96.4844,317.89 -13.5156,137.305 -10.7031,279.414 8.4375,426.211 2.7735,21.016 -11.6015,40.703 -32.539,44.805 -41.875,7.617 -84.8829,6.602 -129.0625,-3.086 -58.2032,-12.695 -99.5704,-18.125 -124.1016,-16.133 -52.3047,4.102 -104.1406,13.516 -155.4688,28.008 -12.5,3.828 -16.0937,-0.08 -10.7031,-11.875 24.7656,-52.812 65.4688,-98.008 122.1485,-135.508 127.1484,-84.804 176.7968,-207.5 148.9843,-368.008"
         transform="matrix(0.1,0,0,-0.1,0,5000)"
         id="path69150" /><path
         fill-rule="nonzero"
         fill="#7f8e4a"
         fill-opacity="1"
         d="m 1308.8906,2460.8906 c -0.2617,-2.9297 -1.1601,-5.539 -2.7187,-7.8125 -0.6328,-0.8984 -1.8516,-1.2265 -2.9531,-0.7968 -15.0274,6.0976 -29.6875,5.1875 -43.9571,-2.7227 0.6602,-5.2891 -0.4336,-9.7383 -3.2929,-13.3672 -4.2383,-5.3828 -6.5469,-8.5117 -6.9297,-9.3828 -4.6797,-10.4688 -7.461,-21.3789 -8.3477,-32.7383 -0.3906,-4.6992 0.25,-10.3203 1.9102,-16.8515 1.4297,-5.5704 2.6679,-11.1797 3.7187,-16.8477 0.019,-0.1523 0.5508,-2.0195 1.5703,-5.5898 1.2696,-4.4219 -0.6914,-6.9727 -5.9023,-7.6602 -1.3477,-0.1797 -2.5391,-0.6328 -3.4102,-1.3008 -13.1992,-10.2695 -17.1679,-23.9922 -11.9062,-41.1719 2.039,-6.7382 3.0976,-15.4687 3.1797,-26.1875 0.02,-2.8828 -1.1914,-5.4804 -3.2618,-6.9296 l -28.6015,-20.4219 c -1.9688,-1.3985 -4.6367,-1.8399 -7.2774,-1.1797 -5.7421,1.4297 -11.3515,2.5312 -16.8125,3.2891 -6.0195,0.8203 -11.5,0.09 -16.4296,-2.1797 -14.4493,-6.6407 -24.2383,-17.75 -29.3672,-33.3203 -1.6797,-5.129 -3.8711,-9.6602 -6.5508,-13.5899 -5.2305,-7.707 -7.9922,-11.8203 -8.2695,-12.3281 -2.6797,-5.1094 -5.3008,-10.4219 -7.8516,-15.9297 -0.6406,-1.332 -1.3008,-1.3516 -1.9883,-0.043 -5.4922,10.3125 -10.1133,21.0117 -13.8633,32.0938 -4.3984,12.9883 -14.0781,22.8476 -29.0664,29.5586 -12.8203,5.7695 -25.8398,7.6211 -39.0625,5.5508 -8.1406,-1.2696 -16.8086,-3.4297 -26.00389,-6.4727 -8.6289,-2.8594 -16.63281,-7.0703 -24.00781,-12.6289 -0.88672,-0.668 -2.13672,-0.6094 -2.94922,0.1484 -8.73047,8.0703 -19.03516,12.9219 -30.90234,14.5508 -22.26563,3.0625 -43.37891,-0.1094 -63.34375,-9.5391 -1.17578,-0.5507 -2.44922,-0.7617 -3.67578,-0.6093 -6.125,0.789 -12.20313,1.9609 -18.22657,3.4883 -13.86328,3.5195 -27.89062,4.2031 -42.08593,2.0312 -7.19922,-1.1016 -11.5,1.8906 -12.90625,8.9609 -1.1211,5.5899 -1.72266,8.5 -1.80079,8.7305 -4.03125,11.6875 -11.21875,20.2383 -21.55859,25.6602 -4.49219,2.3398 -6.10156,5.9687 -4.82422,10.8672 2.04297,7.9414 2.3086,15.0625 0.80469,21.371 -0.82031,3.3711 -0.47266,6.629 1.03125,9.7696 -1.48047,7.8594 -4.16016,15.1289 -8.03906,21.8203 -3.625,6.2305 -9.14063,11.2617 -16.54688,15.0898 -27.64844,14.2188 -57.10937,16.8086 -88.38281,7.7813 -21.03516,-17.2891 -36.86328,-38.2617 -47.48438,-62.9219 -4.95312,-11.4883 -8.82031,-18.5586 -11.60546,-21.2187 -6.73829,-6.4297 -15.39454,-8.4102 -25.96094,-5.9297 -1.15625,0.2695 -2.17578,1.0078 -2.83594,2.0586 -7.09766,10.8515 -15.67578,20.082 -25.73437,27.6914 -8.11719,6.1797 -17.53907,10.0586 -28.26172,11.6406 -12.58594,1.8906 -25.62891,2.1484 -39.13672,0.7695 -4.90235,-0.5117 -8.11719,1.5782 -9.64844,6.2813 -10.77344,33.3164 -33.0625,48.1992 -66.86328,44.6484 -8.29688,-0.8906 -13.16016,-5.3984 -14.58984,-13.5195 -1.07422,-6.1016 -2.09375,-12.211 -3.0625,-18.3399 -0.17969,-1.1406 -1.04688,-2.0312 -2.14844,-2.2226 -6.5586,-1.1172 -12.82813,-0.6485 -18.80078,1.4219 -4.54297,1.5507 -8.19532,4.9101 -10.95313,10.0703 -10.36328,19.5312 -16.60547,40.3476 -18.72656,62.4609 -0.6875,7.0899 -2.4375,12.6602 -5.24609,16.6875 -10.90235,15.7813 -26.9336,22.5625 -48.09766,20.3399 -4.72266,-0.5079 -8.80859,0.9804 -12.25391,4.4804 -7.3789,-16.4687 -8.4375,-33.0781 -3.17968,-49.8203 1.40625,-4.5 3.65234,-8.3476 6.74218,-11.5703 3.14063,-3.2695 6.625,-6.1875 10.45313,-8.7695 1.89844,-1.2578 2.71875,-3.6602 1.99219,-5.8203 -4.82422,-14.5274 -4.37891,-28.0704 1.33984,-40.629 4.23828,-9.289 10.48047,-16.5703 18.72656,-21.8281 8.39844,-5.332 18.0625,-8.0117 28.98828,-8.0429 2.82032,0 5.36328,-1.7188 6.39453,-4.3282 8.32422,-20.832 23.83204,-32.4609 46.52735,-34.8789 5.49219,4.3086 11.21094,5.4766 17.15625,3.5196 2.40234,-0.8204 6.6914,-4 12.86719,-9.543 18.76562,-16.8477 40.00781,-18.1094 63.72265,-3.7891 4.41797,2.6797 7.33985,1.5391 8.76953,-3.4375 7.02344,-24.5117 23.51563,-40.5312 49.47657,-48.0625 17.74609,-2.6094 33.77734,0.4102 48.09765,9.0313 4.51953,2.7383 8.54297,2.1211 12.06641,-1.8321 5.38672,-6.0273 13.875,-11.0781 25.46484,-15.1679 4.49219,-1.5821 6.81641,-4.7617 6.96875,-9.5313 0.3086,-9.7578 3.10156,-20.6211 8.38672,-32.5898 5.92188,-10.6485 13.74609,-19.2305 23.47656,-25.7383 1.92969,-1.293 3.00391,-3.5313 2.79297,-5.8203 -4.05859,-42.25 14.55469,-67.1289 55.83594,-74.6289 0.33594,-0.07 0.66406,-0.1719 0.97656,-0.3125 2.1875,-0.9688 3.1875,-3.5703 2.21485,-5.7578 -0.13672,-0.3125 -0.3086,-0.6016 -0.51172,-0.8711 -2.98828,-3.8789 -4.22657,-8.0899 -3.71485,-12.6289 0.38282,-3.5508 2.05469,-7.3321 5.01563,-11.3399 9.93359,-13.3828 23.82031,-17.2422 41.66797,-11.6015 1.19922,0.3789 1.52734,0.012 0.99218,-1.1094 -4.1875,-9.0117 -7.25,-19.2422 -9.1875,-30.6797 -0.004,-0.012 -0.008,-0.043 -0.0117,-0.051 -0.27344,-1.4687 -1.71875,-2.4492 -3.20704,-2.1797 -0.0117,0.01 -0.0273,0.01 -0.0391,0.01 -14.7539,3.043 -28.19531,3.7305 -40.32422,2.0704 -7.78515,-1.0704 -14.08984,1.8828 -18.91797,8.8515 -1.27734,1.8594 -2.96093,6.8789 -5.05468,15.0508 -1.58203,6.168 -3.36719,11.1172 -5.35938,14.8203 -14.83203,27.5391 -38.57812,40.0391 -71.23047,37.4883 -0.15234,0 -3.89062,-0.7109 -11.21875,-2.1094 -10.90234,-2.0898 -19.99218,2.168 -27.26562,12.7891 -6.25391,9.1211 -15.02344,14.25 -26.3086,15.4023 -5.54296,0.5781 -11.47656,0.7071 -17.80859,0.3789 -5.84375,-0.3125 -11.70312,-1.5312 -17.57812,-3.6797 -4.3125,-1.5507 -6.30469,-4.6328 -5.97266,-9.2304 0.30469,-3.9805 -0.90625,-7.8907 -3.63672,-11.7188 -4.31641,-6.0508 -8.87109,-7.8125 -13.67187,-5.2812 -2.78125,1.4609 -5.13282,4.6484 -7.04688,9.5703 -2.14453,5.5703 -4.26172,11.2773 -6.35547,17.1211 -0.79297,2.2265 -2.33984,4.0976 -4.36719,5.289 -9.85546,5.711 -20.26953,9.211 -31.24609,10.4883 -6.41016,0.7617 -9.19141,4.3399 -8.35156,10.7227 2.42578,18.789 -3.21485,34.4765 -16.92578,47.0664 -0.85547,0.8008 -1.33985,1.9101 -1.33985,3.0625 v 1.8398 c -4.97656,0.8711 -8.80859,1.8711 -11.48828,3.0196 -16.875,7.2812 -33.78906,9.8281 -50.73828,7.6601 -8.68359,-1.1211 -11.55859,6.4102 -15.54297,6.5078 -5.58984,-8.0898 -12.04297,-24.6679 -12.45312,-33.6562 -0.38282,-8.2735 1.83984,-16.5938 6.66406,-24.9727 8.62891,-14.9804 21.91797,-24.6797 39.86328,-29.0976 2.19922,-0.5313 3.71875,-2.5703 3.60156,-4.8321 -0.61328,-12.3789 0.86719,-23.7578 4.44141,-34.1601 8.73047,-25.4492 26.06641,-37.6602 52.00391,-36.6406 2.40625,0.09 4.63671,-1.2969 5.6289,-3.4883 13.58203,-30.3008 38.26953,-41.4805 74.0625,-33.5391 3.06641,0.6797 6.20703,-0.9414 7.39063,-3.832 6.28125,-15.168 15.24218,-27.5781 26.88281,-37.2305 4.82812,-4 11.78516,-7.8086 20.87109,-11.4101 12.15235,-4.7969 19.51953,-7.8907 22.09766,-9.2579 13.04297,-7 28.18359,-7.0507 45.41797,-0.1601 3.41406,1.3594 7.33594,0.5078 9.8789,-2.1406 26.88282,-28.0899 58.96094,-32.3985 96.23438,-12.9493 1.02734,0.5508 2.28125,0.5391 3.33203,-0.039 25.80859,-13.7031 50.28125,-9.9805 73.41016,11.1875 1.22656,1.1015 2.92578,1.5508 4.55859,1.1797 41.76563,-9.5703 73.66406,4.25 95.69922,41.4804 0.004,0.012 0.008,0.012 0.0156,0.02 0.81641,1.3515 2.60938,1.7812 3.97657,0.9492 0.008,0 0.0195,-0.01 0.0273,-0.019 5.92188,-3.668 11.32422,-6.8204 16.19922,-9.4493 5.82031,-3.1406 11.71875,-4.789 17.69141,-4.9414 22.05859,-0.6367 41.32031,6.9024 57.79298,22.6328 10.0586,9.5977 16.8789,22.3086 20.4765,38.1407 0.012,0.01 0.012,0.027 0.012,0.039 0.4179,1.6485 2.1093,2.668 3.7617,2.2578 0.01,0 0.019,0 0.019,0 17.4883,-4.4179 33.3594,-1.5703 47.5977,8.543 9.8906,7.0195 15.4804,15.8477 16.7812,26.5 0.3086,2.6289 2.7383,4.5586 5.3985,4.2891 30.6093,-3.3711 52.9218,8.5195 66.9414,35.6914 1.7187,3.3672 4.3789,6.1875 7.6601,8.1172 20.0078,11.8203 31.3086,29.8711 33.8906,54.1406 0.2891,2.7812 1.75,5.3008 4.0196,6.9414 4.6211,3.3203 7.4492,7.2305 8.5,11.75 2.1406,9.1172 3.1914,17.6602 3.1406,25.6172 -0.031,1.9023 1.1406,3.6328 2.9102,4.293 36.0976,13.6289 48.7187,39.4687 37.8671,77.5078 -0.3398,1.1797 0.211,2.4609 1.3125,3.0625 35.7891,19.789 47.5274,49.8398 35.2305,90.1484 -0.6328,2.0781 0.1172,4.3516 1.8672,5.6719 17.3633,12.9375 25.8398,30.0078 25.4297,51.1992 -0.3086,16.8203 -6.4688,29.8984 -18.5,39.25 -5.6602,4.4102 -7.9492,9.8398 -6.8477,16.2695 z M 935.97656,2093.9102 c -1.6875,9.8086 -5.375,16.2187 -11.07031,19.2304 -21.05859,11.1289 -40.23438,8.7188 -57.51563,-7.2422 -0.10546,-0.09 -0.21484,-0.1796 -0.33203,-0.25 -1.1289,-0.7265 -2.66015,-0.3984 -3.38672,0.7422 -0.0703,0.1094 -0.13671,0.2305 -0.1875,0.3477 -3.67578,8.8906 -8.34765,17.2617 -14.01562,25.1211 -3.19141,4.4492 -5.04297,7.8789 -5.55469,10.3125 -1.27734,6.1992 1.86328,9.6875 9.42188,10.4492 6.71484,0.6602 16.33984,-0.043 28.875,-2.1094 14.24218,-2.3398 23.6914,-4.2734 28.33593,-5.7812 12.89454,-4.1289 23.89454,-11.6719 33.01172,-22.5899 7.63282,-9.1406 10.84766,-19.7422 9.64844,-31.789 -1.35156,-13.7305 -1.07031,-27.9414 0.84375,-42.6211 0.27734,-2.1016 -1.16016,-4.0703 -3.25391,-4.4805 -4.1875,-0.7617 -8.48828,-0.6602 -12.90625,0.3086 -5.82031,1.2695 -9.95703,1.8125 -12.41015,1.6133 -5.23047,-0.4102 -10.41406,-1.3516 -15.54688,-2.8008 -1.25,-0.3828 -1.60937,0.01 -1.07031,1.1875 2.47656,5.2812 6.54688,9.8008 12.21484,13.5508 12.71485,8.4804 17.67969,20.75 14.89844,36.8008"
         id="path69152" /><path
         fill-rule="nonzero"
         fill="#637836"
         fill-opacity="1"
         d="m 637.58203,2151.3594 c -16.54297,-15.3477 -27.67578,-32.3985 -33.39453,-51.168 -2.16797,-7.043 -5.91016,-10.6406 -11.21875,-10.793 -4.23828,-0.1289 -7.875,1.961 -10.91406,6.2813 -2.32422,3.2891 -3.89453,6.9101 -4.71094,10.8711 -1.58203,7.5586 -2.38672,11.3906 -2.41016,11.4883 -7.04687,19.3828 -21.79297,27.4492 -44.23047,24.1992 -7.27734,-4.5391 -12.30859,-2.5977 -15.08984,5.8203 -3.49609,10.6211 -10.12109,18.6406 -19.875,24.0508 -8.24609,4.5703 -17.83203,6.6094 -28.75781,6.1289 -18.79297,-0.8164 -34.32813,-8.6367 -46.60547,-23.4766 -2.88672,-3.4726 -5.04297,-5.5117 -6.47266,-6.1211 v -1.8398 c 0,-1.1524 0.48438,-2.2617 1.33985,-3.0625 13.71093,-12.5899 19.35156,-28.2774 16.92578,-47.0664 -0.83985,-6.3828 1.9414,-9.961 8.35156,-10.7227 10.97656,-1.2773 21.39063,-4.7773 31.24609,-10.4883 2.02735,-1.1914 3.57422,-3.0625 4.36719,-5.289 2.09375,-5.8438 4.21094,-11.5508 6.35547,-17.1211 1.91406,-4.9219 4.26563,-8.1094 7.04688,-9.5703 4.80078,-2.5313 9.35546,-0.7696 13.67187,5.2812 2.73047,3.8281 3.94141,7.7383 3.63672,11.7188 -0.33203,4.5976 1.66016,7.6797 5.97266,9.2304 5.875,2.1485 11.73437,3.3672 17.57812,3.6797 6.33203,0.3282 12.26563,0.1992 17.80859,-0.3789 11.28516,-1.1523 20.05469,-6.2812 26.3086,-15.4023 7.27344,-10.6211 16.36328,-14.8789 27.26562,-12.7891 7.32813,1.3985 11.06641,2.1094 11.21875,2.1094 32.65235,2.5508 56.39844,-9.9492 71.23047,-37.4883 1.99219,-3.7031 3.77735,-8.6523 5.35938,-14.8203 2.09375,-8.1719 3.77734,-13.1914 5.05468,-15.0508 4.82813,-6.9687 11.13282,-9.9219 18.91797,-8.8515 12.12891,1.6601 25.57032,0.9726 40.32422,-2.0704 0.0117,0 0.0274,0 0.0391,-0.01 1.48829,-0.2695 2.9336,0.711 3.20704,2.1797 0.004,0.01 0.008,0.039 0.0117,0.051 1.9375,11.4375 5,21.668 9.1875,30.6797 0.53516,1.1211 0.20704,1.4883 -0.99218,1.1094 -17.84766,-5.6407 -31.73438,-1.7813 -41.66797,11.6015 -2.96094,4.0078 -4.63281,7.7891 -5.01563,11.3399 -0.51172,4.539 0.72657,8.75 3.71485,12.6289 0.20312,0.2695 0.375,0.5586 0.51172,0.8711 0.97265,2.1875 -0.0274,4.789 -2.21485,5.7578 -0.3125,0.1406 -0.64062,0.2422 -0.97656,0.3125 -41.28125,7.5 -59.89453,32.3789 -55.83594,74.6289 0.21094,2.289 -0.86328,4.5273 -2.79297,5.8203 -9.73047,6.5078 -17.55468,15.0898 -23.47656,25.7383"
         id="path69154" /><path
         fill-rule="nonzero"
         fill="#697f39"
         fill-opacity="1"
         d="m 935.97656,2093.9102 c 2.78125,-16.0508 -2.18359,-28.3204 -14.89844,-36.8008 -5.66796,-3.75 -9.73828,-8.2696 -12.21484,-13.5508 -0.53906,-1.1797 -0.17969,-1.5703 1.07031,-1.1875 5.13282,1.4492 10.31641,2.3906 15.54688,2.8008 2.45312,0.1992 6.58984,-0.3438 12.41015,-1.6133 4.41797,-0.9688 8.71875,-1.0703 12.90625,-0.3086 2.09375,0.4102 3.53125,2.3789 3.25391,4.4805 -1.91406,14.6797 -2.19531,28.8906 -0.84375,42.6211 1.19922,12.0468 -2.01562,22.6484 -9.64844,31.789 -9.11718,10.918 -20.11718,18.461 -33.01172,22.5899 -4.64453,1.5078 -14.09375,3.4414 -28.33593,5.7812 -12.53516,2.0664 -22.16016,2.7696 -28.875,2.1094 -7.5586,-0.7617 -10.69922,-4.25 -9.42188,-10.4492 0.51172,-2.4336 2.36328,-5.8633 5.55469,-10.3125 5.66797,-7.8594 10.33984,-16.2305 14.01562,-25.1211 0.0508,-0.1172 0.11719,-0.2383 0.1875,-0.3477 0.72657,-1.1406 2.25782,-1.4687 3.38672,-0.7422 0.11719,0.07 0.22657,0.1602 0.33203,0.25 17.28125,15.961 36.45704,18.3711 57.51563,7.2422 5.69531,-3.0117 9.38281,-9.4218 11.07031,-19.2304"
         id="path69156" /><path
         fill-rule="nonzero"
         fill="#3c6035"
         fill-opacity="1"
         d="m 637.58203,2151.3594 c -5.28516,11.9687 -8.07812,22.832 -8.38672,32.5898 -0.15234,4.7696 -2.47656,7.9492 -6.96875,9.5313 -11.58984,4.0898 -20.07812,9.1406 -25.46484,15.1679 -3.52344,3.9532 -7.54688,4.5704 -12.06641,1.8321 -14.32031,-8.6211 -30.35156,-11.6407 -48.09765,-9.0313 0.0508,-2.1679 0.78125,-4 2.18359,-5.4804 0.86328,-0.8594 1.17969,-2.0469 0.80469,-3.0274 -4.28907,-11.8203 -5.73047,-23.9805 -4.32813,-36.4922 0.125,-1.1875 -0.17187,-2.4297 -0.84375,-3.5195 -2.01562,-3.2695 -3.2539,-6.8281 -3.71094,-10.6914 22.4375,3.25 37.1836,-4.8164 44.23047,-24.1992 0.0234,-0.098 0.82813,-3.9297 2.41016,-11.4883 0.81641,-3.961 2.38672,-7.582 4.71094,-10.8711 3.03906,-4.3203 6.67578,-6.4102 10.91406,-6.2813 5.30859,0.1524 9.05078,3.75 11.21875,10.793 5.71875,18.7695 16.85156,35.8203 33.39453,51.168"
         id="path69158" /><path
         fill-rule="nonzero"
         fill="#27502d"
         fill-opacity="1"
         d="m 530.70312,2142.2383 c 0.45704,3.8633 1.69532,7.4219 3.71094,10.6914 0.67188,1.0898 0.96875,2.332 0.84375,3.5195 -1.40234,12.5117 0.0391,24.6719 4.32813,36.4922 0.375,0.9805 0.0586,2.168 -0.80469,3.0274 -1.40234,1.4804 -2.13281,3.3125 -2.18359,5.4804 -25.96094,7.5313 -42.45313,23.5508 -49.47657,48.0625 -1.42968,4.9766 -4.35156,6.1172 -8.76953,3.4375 -23.71484,-14.3203 -44.95703,-13.0586 -63.72265,3.7891 -6.17579,5.543 -10.46485,8.7226 -12.86719,9.543 -5.94531,1.957 -11.66406,0.789 -17.15625,-3.5196 -12.89063,-13.7422 -18.40625,-29.1719 -16.54297,-46.3008 0.79297,-7.0507 1.1875,-10.6914 1.1875,-10.9218 0.30859,-4.1602 0.67969,-8.3086 1.11328,-12.4375 0.11328,-1.043 -0.54297,-2.0703 -1.60937,-2.5313 l -15.01172,-6.3594 c -10.23828,-6.6328 -19.46094,-18.8828 -23.26563,-29.8593 3.98438,-0.1016 12.51563,3.8476 21.19922,4.9687 16.94922,2.168 33.86328,-0.3789 50.73828,-7.6601 2.67969,-1.1485 6.51172,-2.1485 11.48828,-3.0196 1.42969,0.6094 3.58594,2.6485 6.47266,6.1211 12.27734,14.8399 27.8125,22.6602 46.60547,23.4766 10.92578,0.4805 20.51172,-1.5586 28.75781,-6.1289 9.75391,-5.4102 16.37891,-13.4297 19.875,-24.0508 2.78125,-8.418 7.8125,-10.3594 15.08984,-5.8203"
         id="path69160" /><path
         fill-rule="nonzero"
         fill="#667a36"
         fill-opacity="1"
         d="m 1259.2617,2449.5586 c -10.6523,-4.6992 -18.4219,-12.3984 -23.3203,-23.0898 -0.1133,-0.2383 -0.2422,-0.4688 -0.3906,-0.6797 -1.2891,-1.8399 -3.8711,-2.2891 -5.711,-1 -0.1992,0.1523 -0.3906,0.3125 -0.5585,0.4922 -6.5899,6.7382 -14.1524,10.6796 -22.6797,11.8281 -35,2.8594 -55.0118,-12.5078 -60.043,-46.0977 -0.02,-0.09 -0.039,-0.1719 -0.07,-0.25 -0.2266,-0.6328 -0.9375,-0.9531 -1.5664,-0.7226 -0.082,0.031 -0.1602,0.07 -0.2422,0.1211 -16.5195,10.8281 -32.8203,10.3906 -48.8984,-1.3008 -6.5118,-4.75 -20.4102,-20.8789 -41.7032,-48.3985 -10.1093,-13.1015 -21.4375,-25.0625 -33.9687,-35.8906 -0.051,-0.039 -0.1094,-0.09 -0.1602,-0.1289 -1.9883,-1.5508 -4.9101,-1.1914 -6.4492,0.7969 -0.051,0.062 -0.09,0.1211 -0.1289,0.1836 -12.332,17.4297 -28.82423,25.9687 -49.48048,25.6172 -8.21875,-0.1602 -16.58203,-2.0977 -25.08203,-5.8282 -7.5039,-3.2617 -15.125,-7.5 -22.86328,-12.7109 -0.0547,-0.039 -0.11328,-0.07 -0.17578,-0.1094 -1.80859,-1.0703 -4.17578,-0.4492 -5.24219,1.3594 -0.0351,0.051 -0.0625,0.1094 -0.0937,0.1719 -6.23047,12.0976 -14.69531,21.8867 -25.39062,29.3672 -20.3711,14.2226 -42.25391,16.7226 -65.63672,7.5117 -16.77344,-6.5899 -30.11328,-15.4492 -40.01953,-26.582 -2.88281,-3.2383 -5.67969,-4.8594 -8.38672,-4.8594 -1.50391,-3.1406 -1.85156,-6.3985 -1.03125,-9.7696 1.50391,-6.3085 1.23828,-13.4296 -0.80469,-21.371 -1.27734,-4.8985 0.33203,-8.5274 4.82422,-10.8672 10.33984,-5.4219 17.52734,-13.9727 21.55859,-25.6602 0.0781,-0.2305 0.67969,-3.1406 1.80079,-8.7305 1.40625,-7.0703 5.70703,-10.0625 12.90625,-8.9609 14.19531,2.1719 28.22265,1.4883 42.08593,-2.0312 6.02344,-1.5274 12.10157,-2.6993 18.22657,-3.4883 1.22656,-0.1524 2.5,0.059 3.67578,0.6093 19.96484,9.4297 41.07812,12.6016 63.34375,9.5391 11.86718,-1.6289 22.17187,-6.4805 30.90234,-14.5508 0.8125,-0.7578 2.0625,-0.8164 2.94922,-0.1484 7.375,5.5586 15.37891,9.7695 24.00781,12.6289 9.19524,3.043 17.86324,5.2031 26.00384,6.4727 13.2227,2.0703 26.2423,0.2187 39.0625,-5.5508 14.9883,-6.711 24.668,-16.5703 29.0664,-29.5586 3.75,-11.0821 8.3711,-21.7813 13.8633,-32.0938 0.6875,-1.3086 1.3477,-1.289 1.9883,0.043 2.5508,5.5078 5.1719,10.8203 7.8516,15.9297 0.2773,0.5078 3.039,4.6211 8.2695,12.3281 2.6797,3.9297 4.8711,8.4609 6.5508,13.5899 5.1289,15.5703 14.9179,26.6796 29.3672,33.3203 4.9296,2.2695 10.4101,3 16.4296,2.1797 5.461,-0.7579 11.0704,-1.8594 16.8125,-3.2891 2.6407,-0.6602 5.3086,-0.2188 7.2774,1.1797 l 28.6015,20.4219 c 2.0704,1.4492 3.2813,4.0468 3.2618,6.9296 -0.082,10.7188 -1.1407,19.4493 -3.1797,26.1875 -5.2617,17.1797 -1.293,30.9024 11.9062,41.1719 0.8711,0.668 2.0625,1.1211 3.4102,1.3008 5.2109,0.6875 7.1719,3.2383 5.9023,7.6602 -1.0195,3.5703 -1.5508,5.4375 -1.5703,5.5898 -1.0508,5.668 -2.289,11.2773 -3.7187,16.8477 -1.6602,6.5312 -2.3008,12.1523 -1.9102,16.8515 0.8867,11.3594 3.668,22.2695 8.3477,32.7383 0.3828,0.8711 2.6914,4 6.9297,9.3828 2.8593,3.6289 3.9531,8.0781 3.2929,13.3672"
         id="path69162" /><path
         fill-rule="nonzero"
         fill="#667a36"
         fill-opacity="1"
         d="m 658.03125,2364.0508 c -22.82422,4.2773 -40.92578,-1.0625 -54.30078,-16.0508 -4.80078,-5.3594 -7.125,-4.4414 -6.96875,2.7617 0.48437,22.4102 -10.66016,32.6094 -33.4336,30.5977 -5.0039,-0.4375 -8.29687,1.7187 -9.8789,6.4687 -1.40235,4.211 -3.81641,7.8125 -7.23828,10.8008 -2.88672,2.5 -6.71485,4.0703 -11.48828,4.7109 -22.23829,2.9297 -40.97657,-4.4179 -56.21485,-22.0585 -0.1914,-0.2227 -0.40625,-0.4219 -0.64453,-0.5821 -1.59375,-1.1289 -3.83594,-0.7383 -4.96094,0.8516 -0.16797,0.2383 -0.30468,0.4883 -0.41015,0.7578 -4.08203,10.4414 -11.00391,19.1602 -20.75391,26.1602 -4.1875,3.0117 -9.42187,4.6601 -15.70312,4.9414 -7.78516,0.3789 -15.5586,0.7812 -23.32032,1.1796 -1.20703,0.082 -2.3125,0.6993 -2.98437,1.6915 -20.45313,29.8671 -48.48438,38.2304 -84.09766,25.0781 -2.35156,-0.8711 -4.96484,-0.6406 -7.12109,0.6211 -9.65235,5.6601 -16.71094,11.4101 -21.17969,17.2304 -3.52344,4.5899 -9.01172,8.6407 -16.46484,12.1407 -1.07032,0.5078 -2.33203,0.3593 -3.21875,-0.3907 -3.80078,-3.1406 -6.25391,-6.8125 -7.35157,-11.0195 -1.17578,-4.5195 -4.04687,-6.8125 -8.61718,-6.8633 l 4.9414,-4.6289 c 3.44532,-3.5 7.53125,-4.9883 12.25391,-4.4804 21.16406,2.2226 37.19531,-4.5586 48.09766,-20.3399 2.80859,-4.0273 4.55859,-9.5976 5.24609,-16.6875 2.12109,-22.1133 8.36328,-42.9297 18.72656,-62.4609 2.75781,-5.1602 6.41016,-8.5196 10.95313,-10.0703 5.97265,-2.0704 12.24218,-2.5391 18.80078,-1.4219 1.10156,0.1914 1.96875,1.082 2.14844,2.2226 0.96875,6.1289 1.98828,12.2383 3.0625,18.3399 1.42968,8.1211 6.29296,12.6289 14.58984,13.5195 33.80078,3.5508 56.08984,-11.332 66.86328,-44.6484 1.53125,-4.7031 4.74609,-6.793 9.64844,-6.2813 13.50781,1.3789 26.55078,1.1211 39.13672,-0.7695 10.72265,-1.582 20.14453,-5.4609 28.26172,-11.6406 10.05859,-7.6094 18.63671,-16.8399 25.73437,-27.6914 0.66016,-1.0508 1.67969,-1.7891 2.83594,-2.0586 10.5664,-2.4805 19.22265,-0.5 25.96094,5.9297 2.78515,2.6601 6.65234,9.7304 11.60546,21.2187 10.6211,24.6602 26.44922,45.6328 47.48438,62.9219"
         id="path69164" /><path
         fill-rule="nonzero"
         fill="#385d33"
         fill-opacity="1"
         d="m 1206.6016,2437.1094 c -15.8711,20.1719 -34.2813,37.4922 -55.2227,51.9687 -7.4297,5.1328 -14.0195,8.0117 -19.7891,8.6524 -8.4296,0.9687 -15.8007,-1.1602 -22.1015,-6.3907 -4.7969,-4.0117 -9.1992,-9.3593 -13.207,-16.0507 -3.6329,-6.0196 -5.9297,-12.711 -6.9024,-20.0586 -1.0391,-7.7696 1.2617,-16.4805 6.9024,-26.1602 6.707,-11.5586 5.039,-21.9219 -5.0196,-31.0586 -0.9023,-0.8008 -2.1211,-1.1914 -3.3711,-1.0703 -7.8398,0.8203 -15.5703,2.1992 -23.2109,4.1367 -8.9297,2.293 -16.0899,3.0508 -21.4805,2.2617 -20.5508,-3.039 -37.1211,-14.1093 -49.70701,-33.2109 -0.0742,-0.1094 -0.16016,-0.207 -0.25782,-0.3086 -0.71093,-0.6797 -1.84765,-0.6719 -2.51953,0.02 -0.0937,0.1016 -0.17578,0.211 -0.24609,0.3321 -9.70313,16.3672 -17.84766,33.4062 -24.43359,51.1289 -4.97657,4.8476 -7.39063,11.3398 -7.23438,19.4883 0.40625,-2.168 0.0234,-3.4493 -1.15234,-3.8282 -0.63282,-0.1992 -1.91797,0.3086 -3.25391,1.3008 l -16.00781,12.0977 c -2.55078,0.2617 -5.06641,0.1601 -7.54297,-0.3008 -2.01563,-0.3594 -4.13672,-1.457 -6.35547,-3.2969 -3.5,-2.8828 -7.1875,-5.5 -11.06641,-7.8515 -0.99218,-0.5899 -1.52343,-1.7188 -1.34375,-2.8321 1.125,-6.7187 -0.1914,-11.6093 -3.9414,-14.6679 -10.4961,-8.5821 -17.45313,-17.3204 -20.8711,-26.2305 -3.80468,-9.9805 -10.50781,-12.75 -20.10546,-8.3086 -13.42969,6.1797 -26.84375,5.9883 -40.25,-0.582 -4.1836,-2.0391 -7.79688,-1.3086 -10.83594,2.1914 -5.76953,6.6601 -11.65235,13.1289 -17.65235,19.4101 -6.8164,7.1485 -13.73828,11.9297 -20.75781,14.3282 -10.90234,3.7031 -23.28125,5.371 -37.14453,5.0117 -2.52734,-0.051 -4.9375,-1.1094 -6.70312,-2.9492 -7.8125,-8.1211 -16.60547,-13.25 -26.38282,-15.3907 -5.38672,-1.1797 -9.51172,0.5899 -12.37109,5.2813 -5.15625,8.4492 -12.76563,15.1562 -22.82422,20.1094 -4.67187,2.3203 -9.40625,2.4375 -14.20703,0.3398 -13.37891,-5.793 -24.80078,-14.6914 -34.27344,-26.6914 -5.07812,-6.4297 -8.375,-5.6211 -9.8789,2.4492 -1.48047,7.9219 -4.85157,15 -10.10938,21.2617 -2.07031,2.4688 -7.41797,7.918 -16.04687,16.3477 -6.89454,6.7422 -14.5,12.5703 -22.82422,17.5 -6.86719,4.0625 -13.48047,5.5312 -19.83594,4.4023 -10.77344,-1.8906 -20.88281,-7.9023 -30.32813,-18.0312 -1.34765,-1.4688 -3.52343,-1.8477 -5.28515,-0.918 -33.87891,17.4805 -67.32422,35.1602 -100.33203,53.0274 -3.29688,1.7929 -5.83594,1.0117 -7.6211,-2.3282 -0.70312,-1.3593 -1.72265,-2.25 -2.60547,-2.2617 l -18.03515,-0.6875 c -1.35156,-0.043 -2.76953,0.8281 -3.71485,2.2969 -4.39062,6.8125 -8.29687,12.6601 -11.71875,17.543 -11.02734,15.7187 -26.21875,24.5273 -45.57031,26.4179 -21.70312,2.1211 -38.85937,-5.4804 -51.46875,-22.789 -4.62109,-6.3321 -13.64453,-20.5118 -27.07422,-42.5391 3.52344,-12.4805 10.3125,-21.332 20.3711,-26.543 4.57031,0.051 7.4414,2.3438 8.61718,6.8633 1.09766,4.207 3.55079,7.8789 7.35157,11.0195 0.88672,0.75 2.14843,0.8985 3.21875,0.3907 7.45312,-3.5 12.9414,-7.5508 16.46484,-12.1407 4.46875,-5.8203 11.52734,-11.5703 21.17969,-17.2304 2.15625,-1.2617 4.76953,-1.4922 7.12109,-0.6211 35.61328,13.1523 63.64453,4.789 84.09766,-25.0781 0.67187,-0.9922 1.77734,-1.6094 2.98437,-1.6915 7.76172,-0.3984 15.53516,-0.8007 23.32032,-1.1796 6.28125,-0.2813 11.51562,-1.9297 15.70312,-4.9414 9.75,-7 16.67188,-15.7188 20.75391,-26.1602 0.10547,-0.2695 0.24218,-0.5195 0.41015,-0.7578 1.125,-1.5899 3.36719,-1.9805 4.96094,-0.8516 0.23828,0.1602 0.45313,0.3594 0.64453,0.5821 15.23828,17.6406 33.97656,24.9882 56.21485,22.0585 4.77343,-0.6406 8.60156,-2.2109 11.48828,-4.7109 3.42187,-2.9883 5.83593,-6.5898 7.23828,-10.8008 1.58203,-4.75 4.875,-6.9062 9.8789,-6.4687 22.77344,2.0117 33.91797,-8.1875 33.4336,-30.5977 -0.15625,-7.2031 2.16797,-8.1211 6.96875,-2.7617 13.375,14.9883 31.47656,20.3281 54.30078,16.0508 31.27344,9.0273 60.73437,6.4375 88.38281,-7.7813 7.40625,-3.8281 12.92188,-8.8593 16.54688,-15.0898 3.8789,-6.6914 6.55859,-13.9609 8.03906,-21.8203 2.70703,0 5.50391,1.6211 8.38672,4.8594 9.90625,11.1328 23.24609,19.9921 40.01953,26.582 23.38281,9.2109 45.26562,6.7109 65.63672,-7.5117 10.69531,-7.4805 19.16015,-17.2696 25.39062,-29.3672 0.0312,-0.062 0.0586,-0.1211 0.0937,-0.1719 1.06641,-1.8086 3.4336,-2.4297 5.24219,-1.3594 0.0625,0.039 0.12109,0.07 0.17578,0.1094 7.73828,5.2109 15.35938,9.4492 22.86328,12.7109 8.5,3.7305 16.86328,5.668 25.08203,5.8282 20.65625,0.3515 37.14843,-8.1875 49.48043,-25.6172 0.039,-0.062 0.078,-0.1211 0.129,-0.1836 1.539,-1.9883 4.4609,-2.3477 6.4492,-0.7969 0.051,0.039 0.1094,0.09 0.1602,0.1289 12.5312,10.8281 23.8594,22.7891 33.9687,35.8906 21.293,27.5196 35.1914,43.6485 41.7032,48.3985 16.0781,11.6914 32.3789,12.1289 48.8984,1.3008 0.082,-0.051 0.1601,-0.09 0.2422,-0.1211 0.6288,-0.2305 1.3398,0.09 1.5663,0.7226 0.031,0.078 0.051,0.1602 0.07,0.25 5.0312,33.5899 25.043,48.9571 60.043,46.0977"
         id="path69166" /><path
         fill-rule="nonzero"
         fill="#27502d"
         fill-opacity="1"
         d="m 1206.6016,2437.1094 c 8.5273,-1.1485 16.0898,-5.0899 22.6797,-11.8281 0.1679,-0.1797 0.3593,-0.3399 0.5585,-0.4922 1.8399,-1.2891 4.4219,-0.8399 5.711,1 0.1484,0.2109 0.2773,0.4414 0.3906,0.6797 4.8984,10.6914 12.668,18.3906 23.3203,23.0898 14.2696,7.9102 28.9297,8.8203 43.9571,2.7227 1.1015,-0.4297 2.3203,-0.1016 2.9531,0.7968 1.5586,2.2735 2.457,4.8828 2.7187,7.8125 -3.6992,8.4492 -10.1211,13.668 -19.2617,15.668 -1.1172,0.2422 -1.8906,1.25 -1.8008,2.332 0.3828,4.8477 1.9805,9.3789 4.7813,13.5977 1.4297,10.6719 -0.3789,19.9922 -5.4297,27.9531 -4.8516,7.6094 -12.0078,12.7188 -21.4883,15.3203 -14.293,3.8789 -29.0117,0.8672 -44.1523,-9.0429 -1.4375,-0.9375 -3.3789,-0.6797 -4.5196,0.6093 -5.2578,5.9532 -10.3086,11.6211 -15.1601,17.0117 -6.3086,6.9883 -12,11.961 -17.0781,14.8907 -17.3907,10.0586 -34.6094,9.6679 -51.6602,-1.1797 -4.3398,-2.7891 -8.4297,-2.4414 -12.2617,1.0273 -8.4688,7.6602 -10.1485,22.1914 -16.6289,24.4922 -6.5391,6.3203 -16.4102,6.7188 -30.2891,0 -5.5898,-1.2812 -13.0195,-3.8906 -17.6406,-7.289 l -6.6992,-4.4922 c -1.4102,-2.4493 -7.2735,-3.6485 -6.711,-8.6094 0.7383,-6.4883 -0.6797,-13.8086 -4.2812,-21.9805 2.9101,-1.2304 2.289,-3.2773 -1.8399,-6.1679 -5.2578,-3.6524 -10.1914,-7.6719 -14.7812,-12.0625 -4.75,-4.5196 -7.9688,-9.7774 -9.6485,-15.7774 -5.1601,-18.1211 -4.3789,-36.9023 2.3321,-56.332 0.039,-0.1211 0.066,-0.2305 0.098,-0.3477 0.3907,-1.75 -0.7109,-3.5 -2.4414,-3.8828 -0.1172,-0.027 -0.25,-0.051 -0.3789,-0.059 -9.2578,-0.9219 -18.97654,-2.9219 -29.14061,-6.0117 -4.69531,-1.4297 -10.28906,-7.8477 -16.77343,-19.2578 6.58593,-17.7227 14.73046,-34.7617 24.43359,-51.1289 0.0703,-0.1211 0.15234,-0.2305 0.24609,-0.3321 0.67188,-0.6914 1.8086,-0.6992 2.51953,-0.02 0.0977,0.1016 0.1836,0.1992 0.25782,0.3086 12.58591,19.1016 29.15621,30.1719 49.70701,33.2109 5.3906,0.7891 12.5508,0.031 21.4805,-2.2617 7.6406,-1.9375 15.3711,-3.3164 23.2109,-4.1367 1.25,-0.1211 2.4688,0.2695 3.3711,1.0703 10.0586,9.1367 11.7266,19.5 5.0196,31.0586 -5.6407,9.6797 -7.9415,18.3906 -6.9024,26.1602 0.9727,7.3476 3.2695,14.039 6.9024,20.0586 4.0078,6.6914 8.4101,12.039 13.207,16.0507 6.3008,5.2305 13.6719,7.3594 22.1015,6.3907 5.7696,-0.6407 12.3594,-3.5196 19.7891,-8.6524 20.9414,-14.4765 39.3516,-31.7968 55.2227,-51.9687"
         id="path69168" /><path
         fill-rule="nonzero"
         fill="#27502d"
         fill-opacity="1"
         d="m 938.38672,2450.3594 c 3.01172,7.6406 1.21484,11.0195 -5.39844,10.1523 -1.23828,-0.1601 -2.41406,0.2969 -3.02344,1.1875 l -4.02343,5.8906 c -12.9961,3.711 -25.91407,2.8594 -38.75391,-2.5195 -4.41797,-1.8398 -8.21875,-0.582 -11.41016,3.7891 l -7.26172,14.9297 -26.40234,-5.8907 c -0.9375,-0.1679 -1.6875,-0.9101 -1.875,-1.8789 l -0.6875,-3.5586 c -0.19531,-0.9804 -1.14453,-1.9804 -2.53125,-2.6406 -9.67187,-4.6289 -15.72266,-1.5898 -18.14844,9.1094 -10.21484,-3.2891 -19.32812,-8.5703 -27.34375,-15.8203 -0.0156,-0.01 -0.0273,-0.02 -0.043,-0.031 -0.64453,-0.5078 -1.64453,-0.3164 -2.21484,0.4024 -0.0117,0.019 -0.0273,0.039 -0.0391,0.059 L 771,2489.4609 c -9.13672,8.8282 -18.39453,13.668 -27.76172,14.5079 -8.52734,0.7695 -24.73828,-0.3399 -48.63672,-3.3282 -1.27344,-0.1797 -1.63281,0.3203 -1.07031,1.5 2.75781,5.8399 6.61328,10.918 11.56641,15.2383 -1.5586,4.0117 -4.15235,7.0117 -7.77735,9 -1.21875,0.6719 -1.96484,1.75 -1.875,2.7227 0.15235,1.1679 0.76563,2.1484 1.83985,2.9375 1.10156,0.8007 1.77343,1.8398 1.80078,2.8007 0.15234,6.2305 -2.6836,10.6719 -8.50391,13.3321 -15.16406,-19.4102 -24.81641,-30.2305 -28.94922,-32.4805 -6.5625,-3.5703 -11.75781,-8.4023 -15.58594,-14.4726 -1.12109,-1.7774 -3.51171,-2.3282 -5.32421,-1.2305 -12.48438,7.6601 -25.58204,12.6719 -39.28907,15.0117 -13.19922,-5.8906 -27.07422,-7.2187 -41.6289,-3.9805 -1.25,0.2813 -2.16797,0.7891 -2.75782,1.5313 -1.09765,1.4805 -0.625,2.7187 1.41797,3.7187 -10.85156,-2.7109 -19.54297,1.1016 -26.07812,11.4102 -10.03516,15.7812 -26.38281,27.2305 -49.05469,34.3516 -2.65625,0.1484 -5.54297,0.098 -8.65625,-0.1524 -1.86328,-0.1601 -4.59375,-0.8984 -8.19531,-2.2187 -4.7461,-1.7383 -9.35547,-2.0196 -13.82422,-0.8516 -2.25391,0.6133 -4.64453,-0.3867 -5.78125,-2.4102 -3.26953,-5.7187 -7.23828,-5.9101 -11.91016,-0.5703 -3.85547,-2.1679 -7.1875,-0.9492 -9.99609,3.6719 -11.53906,10.6016 -24.16406,18.8398 -37.87109,24.7383 -27.24219,3.9805 -47.66407,-5.3086 -61.27344,-27.8789 -0.51172,-0.8594 -1.63281,-1.3086 -2.83203,-1.1485 l -8.65625,1.2696 c -5.61719,-1.7891 -11.29688,-3.4024 -17.03907,-4.8321 -6.53906,-1.6093 -11.85937,-3.8398 -15.97265,-6.6992 -22.66797,-15.7304 -36.00781,-37.5 -40.01563,-65.3281 13.42969,22.0273 22.45313,36.207 27.07422,42.5391 12.60938,17.3086 29.76563,24.9101 51.46875,22.789 19.35156,-1.8906 34.54297,-10.6992 45.57031,-26.4179 3.42188,-4.8829 7.32813,-10.7305 11.71875,-17.543 0.94532,-1.4688 2.36329,-2.3399 3.71485,-2.2969 l 18.03515,0.6875 c 0.88282,0.012 1.90235,0.9024 2.60547,2.2617 1.78516,3.3399 4.32422,4.1211 7.6211,2.3282 33.00781,-17.8672 66.45312,-35.5469 100.33203,-53.0274 1.76172,-0.9297 3.9375,-0.5508 5.28515,0.918 9.44532,10.1289 19.55469,16.1406 30.32813,18.0312 6.35547,1.1289 12.96875,-0.3398 19.83594,-4.4023 8.32422,-4.9297 15.92968,-10.7578 22.82422,-17.5 8.6289,-8.4297 13.97656,-13.8789 16.04687,-16.3477 5.25781,-6.2617 8.62891,-13.3398 10.10938,-21.2617 1.5039,-8.0703 4.80078,-8.8789 9.8789,-2.4492 9.47266,12 20.89453,20.8984 34.27344,26.6914 4.80078,2.0977 9.53516,1.9805 14.20703,-0.3398 10.05859,-4.9532 17.66797,-11.6602 22.82422,-20.1094 2.85937,-4.6914 6.98437,-6.461 12.37109,-5.2813 9.77735,2.1407 18.57032,7.2696 26.38282,15.3907 1.76562,1.8398 4.17578,2.8984 6.70312,2.9492 13.86328,0.3593 26.24219,-1.3086 37.14453,-5.0117 7.01953,-2.3985 13.94141,-7.1797 20.75781,-14.3282 6,-6.2812 11.88282,-12.75 17.65235,-19.4101 3.03906,-3.5 6.65234,-4.2305 10.83594,-2.1914 13.40625,6.5703 26.82031,6.7617 40.25,0.582 9.59765,-4.4414 16.30078,-1.6719 20.10546,8.3086 3.41797,8.9101 10.375,17.6484 20.8711,26.2305 3.75,3.0586 5.0664,7.9492 3.9414,14.6679 -0.17968,1.1133 0.35157,2.2422 1.34375,2.8321 3.87891,2.3515 7.56641,4.9687 11.06641,7.8515 2.21875,1.8399 4.33984,2.9375 6.35547,3.2969 2.47656,0.4609 4.99219,0.5625 7.54297,0.3008"
         id="path69170" /><path
         fill-rule="nonzero"
         fill="#482c23"
         fill-opacity="1"
         d="m 958.80078,2440.7891 c -20.07031,44.5 -33.05078,90.4023 -38.94922,137.7109 -0.0195,0.1602 -0.0195,0.3281 0,0.4883 0.13281,1.043 1.10156,1.793 2.14453,1.6601 0.15625,-0.027 0.3125,-0.07 0.46094,-0.1171 38.34766,-15.1211 77.0625,-28.2305 116.15237,-39.3321 3.6015,8.1719 5.0195,15.4922 4.2812,21.9805 -1.4804,0.1992 -2.75,0.8398 -3.832,1.9101 l -82.17579,36.5391 c 2.45313,-1.918 3.72656,-4.1484 3.83203,-6.707 0,-0.082 -0.004,-0.1602 -0.0156,-0.2422 -0.1211,-0.7383 -0.90235,-1.25 -1.73047,-1.1211 -0.082,0.02 -0.16406,0.043 -0.24609,0.062 -12.38282,4.3203 -24,10.1406 -34.84766,17.4687 -1.17188,0.7618 -2.46875,0.9883 -3.44922,0.6094 -1.50391,-0.6094 -2.65234,-1.7109 -3.44531,-3.289 -0.51953,-1.0196 -1.57031,-1.5704 -2.52735,-1.3516 -10.875,2.6133 -18.8789,7.1016 -24.01171,13.4805 -4.28907,5.3203 -8.85547,10.3711 -13.70704,15.1718 -0.78125,0.7579 -1.08593,1.9688 -0.80468,3.1797 0.48437,2.0899 0.29297,3.711 -0.57422,4.8594 -18,23.6211 -30.61328,49.6914 -37.83594,78.2383 -0.5625,2.1914 -2.69531,9.7617 -6.39453,22.7109 -2.19531,7.6289 -3.625,15.4024 -4.28906,23.3203 -1.50782,18.5821 -2.30078,28.25 -2.375,28.9922 -0.89453,8.2383 -1.31641,16.5274 -1.26563,24.8477 0.0781,10.1094 0.0156,18.3711 -0.1875,24.7812 -0.6914,19.6485 0.16406,42.9805 2.5625,69.961 0.9961,11.0273 2.91016,20.1875 5.7461,27.5 2.5,6.4297 3.77734,9.707 3.82812,9.8398 5.61719,16.7969 9.12891,27.0078 10.53125,30.6289 3.98438,10.3711 10.36328,20.1016 19.14844,29.1914 1.30078,1.3477 2.18359,2.6094 2.64062,3.7891 1.30469,3.418 0.41016,4.9883 -2.67968,4.7109 -1.27735,-0.1328 -2.51172,0.078 -3.5625,0.6094 -4.3125,2.168 -9.10157,2.4102 -14.35938,0.7305 -7.91406,-2.5625 -16.27344,-3.7735 -25.08203,-3.6407 -12.5625,0.1485 -20.89844,0.051 -25.00781,-0.3125 -18.83985,-1.5781 -38.92188,-1.789 -60.23828,-0.6093 -7.42969,0.4101 -13.88672,1.4023 -19.375,2.9922 -2.27344,0.6601 -4.04688,0.8085 -5.32422,0.457 -2.34766,-0.668 -3.67578,-2.1485 -3.98438,-4.4492 -0.23047,-1.7578 0.47266,-3.9297 2.10938,-6.5078 9.08593,-14.2422 15.3164,-25.8594 18.6875,-34.8399 5.89843,-15.7305 12.44531,-37.7305 19.64453,-65.9922 1.55859,-6.1211 2.4375,-13.1406 2.64062,-21.0586 0.17969,-7.1523 0.67578,-14.2695 1.4961,-21.3711 1.78515,-15.8476 2.6914,-26.4609 2.71875,-31.8203 0.10156,-18.6406 -1.17578,-37.1484 -3.83203,-55.5273 -3.08594,-21.4219 -6.45704,-39.6133 -10.10938,-54.5703 -4.90234,-20.0118 -11.96094,-37.9024 -21.17578,-53.6524 -16.36719,-27.9297 -42.20313,-48.6797 -77.50781,-62.2578 -3.70313,-1.4414 -7.54688,-2.1211 -11.52735,-2.0703 -3.01172,0.02 -4.73437,-1.6602 -5.17187,-5.0625 -0.14844,-1.2578 -0.6875,-2.3984 -1.53125,-3.2188 -4.6211,-4.4882 -7.09766,-9.9882 -7.42969,-16.5 l 11.375,-0.039 c 1.30078,0 1.62109,-0.5508 0.95703,-1.6406 -14.34765,-23.4219 -31.30078,-43.25 -50.85547,-59.5196 -2.52734,-2.0898 -9.15234,-4.1289 -19.875,-6.1211 -2.04297,-1 -2.51562,-2.2382 -1.41797,-3.7187 0.58985,-0.7422 1.50782,-1.25 2.75782,-1.5313 14.55468,-3.2382 28.42968,-1.9101 41.6289,3.9805 20.19141,19.1484 39.17578,39.1719 56.94141,60.0508 5.84766,6.8398 12.0625,12.2187 18.65234,16.1211 14.14063,8.3789 28.83594,15.6875 44.07422,21.9375 1.20313,0.4922 1.64844,0.1094 1.34375,-1.1406 -5.79687,-23.6172 -16.41797,-44.8907 -31.86328,-63.7969 5.82031,-2.6602 8.65625,-7.1016 8.50391,-13.3321 -0.0274,-0.9609 -0.69922,-2 -1.80078,-2.8007 -1.07422,-0.7891 -1.6875,-1.7696 -1.83985,-2.9375 -0.0898,-0.9727 0.65625,-2.0508 1.875,-2.7227 3.625,-1.9883 6.21875,-4.9883 7.77735,-9 22.28515,21.9297 42.82421,45.582 61.61328,70.9609 2.78515,3.75 4.6875,3.3594 5.70703,-1.1914 6.89453,-30.5586 16.04687,-61.1601 27.45703,-91.789 l 18.38281,10.4101 c 1.06641,0.6094 2.30469,0.5899 3.14063,-0.031 6.55859,-4.9297 10.08203,-11.5 10.57031,-19.7266 0.0664,-1.25 -0.58594,-2.3711 -1.60938,-2.75 l -11.48828,-4.332 c 2.42578,-10.6992 8.47657,-13.7383 18.14844,-9.1094 1.38672,0.6602 2.33594,1.6602 2.53125,2.6406 l 0.6875,3.5586 c 0.1875,0.9688 0.9375,1.711 1.875,1.8789 l 28.17969,3.8321 c -22.44141,25.7304 -39.97266,55.1679 -44.875,88.3008 -2.62891,25.4101 -3.21875,45.8281 -1.76172,61.2695 0.76562,8.0976 3.95703,8.789 9.57422,2.0703 22.72265,-17.2617 38.7539,-32.8711 48.09765,-46.832 7.91407,-11.8008 15.57422,-28.3907 22.97657,-49.7891 7.91406,-22.8203 15.1289,-45.8711 21.63672,-69.1602 l 4.02343,-5.8906 c 0.60938,-0.8906 1.78516,-1.3476 3.02344,-1.1875 6.61328,0.8672 8.41016,-2.5117 5.39844,-10.1523 l 16.00781,-12.0977 c 1.33594,-0.9922 2.62109,-1.5 3.25391,-1.3008 1.17578,0.3789 1.55859,1.6602 1.15234,3.8282"
         id="path69172" /><path
         fill-rule="nonzero"
         fill="#27502d"
         fill-opacity="1"
         d="m 818.87109,2478.9297 11.48828,4.332 c 1.02344,0.3789 1.67579,1.5 1.60938,2.75 -0.48828,8.2266 -4.01172,14.7969 -10.57031,19.7266 -0.83594,0.6211 -2.07422,0.6406 -3.14063,0.031 L 799.875,2495.3594 c -0.20313,-16.1602 -6.87891,-19.2813 -20.02734,-9.3477 -3.44532,2.6094 -6.39454,3.7578 -8.84766,3.4492 l 18.23047,-25.9218 c 0.0117,-0.02 0.0273,-0.039 0.0391,-0.059 0.57031,-0.7188 1.57031,-0.9102 2.21484,-0.4024 0.0156,0.012 0.0273,0.023 0.043,0.031 8.01563,7.25 17.12891,12.5312 27.34375,15.8203"
         id="path69174" /><path
         fill-rule="nonzero"
         fill="#361e18"
         fill-opacity="1"
         d="m 483.33203,2562.0313 c 21.11328,10.289 41.05078,15.8281 59.81641,16.6171 24.60937,1.0508 49.18359,2.6914 73.71484,4.9414 0.33203,6.5118 2.80859,12.0118 7.42969,16.5 0.84375,0.8204 1.38281,1.961 1.53125,3.2188 0.4375,3.4023 2.16015,5.082 5.17187,5.0625 3.98047,-0.051 7.82422,0.6289 11.52735,2.0703 35.30468,13.5781 61.14062,34.3281 77.50781,62.2578 9.21484,15.75 16.27344,33.6406 21.17578,53.6524 3.65234,14.957 7.02344,33.1484 10.10938,54.5703 2.65625,18.3789 3.93359,36.8867 3.83203,55.5273 -0.0274,5.3594 -0.9336,15.9727 -2.71875,31.8203 -0.82032,7.1016 -1.31641,14.2188 -1.4961,21.3711 -0.20312,7.918 -1.08203,14.9375 -2.64062,21.0586 -7.19922,28.2617 -13.7461,50.2617 -19.64453,65.9922 -3.3711,8.9805 -9.60157,20.5977 -18.6875,34.8399 -1.63672,2.5781 -2.33985,4.75 -2.10938,6.5078 0.3086,2.3007 1.63672,3.7812 3.98438,4.4492 1.27734,0.3515 3.05078,0.2031 5.32422,-0.457 5.48828,-1.5899 11.94531,-2.5821 19.375,-2.9922 21.3164,-1.1797 41.39843,-0.9688 60.23828,0.6093 4.10937,0.3633 12.44531,0.461 25.00781,0.3125 8.80859,-0.1328 17.16797,1.0782 25.08203,3.6407 5.25781,1.6797 10.04688,1.4375 14.35938,-0.7305 1.05078,-0.5313 2.28515,-0.7422 3.5625,-0.6094 3.08984,0.2774 3.98437,-1.2929 2.67968,-4.7109 -0.45703,-1.1797 -1.33984,-2.4414 -2.64062,-3.7891 -8.78516,-9.0898 -15.16406,-18.8203 -19.14844,-29.1914 -1.40234,-3.6211 -4.91406,-13.832 -10.53125,-30.6289 -0.0508,-0.1328 -1.32812,-3.4101 -3.82812,-9.8398 -2.83594,-7.3125 -4.75,-16.4727 -5.7461,-27.5 -2.39844,-26.9805 -3.2539,-50.3125 -2.5625,-69.961 0.20313,-6.4101 0.26563,-14.6718 0.1875,-24.7812 -0.0508,-8.3203 0.3711,-16.6094 1.26563,-24.8477 0.0742,-0.7422 0.86718,-10.4101 2.375,-28.9922 0.66406,-7.9179 2.09375,-15.6914 4.28906,-23.3203 3.69922,-12.9492 5.83203,-20.5195 6.39453,-22.7109 7.22266,-28.5469 19.83594,-54.6172 37.83594,-78.2383 0.86719,-1.1484 1.05859,-2.7695 0.57422,-4.8594 -0.28125,-1.2109 0.0234,-2.4218 0.80468,-3.1797 4.85157,-4.8007 9.41797,-9.8515 13.70704,-15.1718 5.13281,-6.3789 13.13671,-10.8672 24.01171,-13.4805 0.95704,-0.2188 2.00782,0.332 2.52735,1.3516 0.79297,1.5781 1.9414,2.6796 3.44531,3.289 0.98047,0.3789 2.27734,0.1524 3.44922,-0.6094 10.84766,-7.3281 22.46484,-13.1484 34.84766,-17.4687 0.082,-0.019 0.16406,-0.043 0.24609,-0.062 0.82812,-0.1289 1.60937,0.3828 1.73047,1.1211 0.0117,0.082 0.0156,0.1601 0.0156,0.2422 -0.10547,2.5586 -1.3789,4.789 -3.83203,6.707 -17.30859,8.3399 -33.95312,17.8711 -49.93359,28.5625 l -16.42969,14.5195 c -5.4375,1.7774 -9.48437,5.3008 -12.14062,10.5274 -13.65625,16.4219 -23.60157,37.4805 -29.83204,63.1914 -14.11718,58.1992 -19.54296,121.7109 -16.27343,190.5117 2.09375,44.2695 17.41015,80.6992 45.95312,109.2891 l 8.00391,8.2812 c 3.16406,3.2891 2.5,4.9492 -1.99219,4.9688 -53.73828,0.289 -107.97656,0.078 -162.71484,-0.6094 -3.69922,-0.051 -9.48438,0.1602 -17.34766,0.6094 -5.79297,0.3398 -11.60156,0.3789 -17.42187,0.1211 -1.27735,-0.082 -1.48047,-0.5703 -0.61329,-1.4922 30.83985,-33.6485 48.64454,-73.3985 53.42188,-119.25 3.49609,-12.5586 4.77344,-25.3281 3.82812,-38.3008 0.33204,-8.7578 0.95704,-17.4688 1.875,-26.1484 0.28125,-2.6797 0.28125,-6.1289 0,-10.3399 -0.23046,-3.5312 -0.125,-7.0195 0.3086,-10.5 0.83984,-6.7617 1.12109,-11.8515 0.83984,-15.2812 -0.9414,-10.8477 -1.94922,-21.6797 -3.02344,-32.5078 l -2.87109,-10.5313 -5.74609,-26.8086 c -3.14063,-19.8125 -9.30469,-38.6328 -18.4961,-56.4805 -2.70703,-7.4804 -6.7539,-14.1796 -12.13672,-20.1015 -2.14843,-3.2188 -4.89062,-5.5781 -8.23437,-7.0899 -16.08594,-19.7812 -37.25,-32.5 -63.49219,-38.1406 -20.65625,-4.4375 -38.71875,-7.0703 -54.1875,-7.8906 -26.98828,-1.7891 -53.51172,-6.6172 -79.57812,-14.5078 -3.65235,-1.1016 -8.66797,-3.3321 -15.05078,-6.6992 -3.72657,-1.9727 -8.69141,-4.4024 -14.89454,-7.2813 -8.73046,-4.0898 -19.97656,-12.8906 -33.73828,-26.4219 4.67188,-5.3398 8.64063,-5.1484 11.91016,0.5703 1.13672,2.0235 3.52734,3.0235 5.78125,2.4102 4.46875,-1.168 9.07812,-0.8867 13.82422,0.8516 3.60156,1.3203 6.33203,2.0586 8.19531,2.2187 3.11328,0.25 6,0.3008 8.65625,0.1524"
         id="path69176" /><path
         fill-rule="nonzero"
         fill="#27502d"
         fill-opacity="1"
         d="m 1098.4219,2574.0195 c 1.9375,1.5821 1.6172,3.0703 -0.961,4.4805 -8.6992,3.2109 -17.3203,3.3203 -25.8398,0.3008 l 26.8008,-4.7813"
         id="path69178" /></g></g></svg>
