<?xml version="1.0" encoding="utf-8"?>
<!-- Generator: Adobe Illustrator 27.8.1, SVG Export Plug-In . SVG Version: 6.00 Build 0)  -->
<svg version="1.1" id="Ebene_1" xmlns="http://www.w3.org/2000/svg" xmlns:xlink="http://www.w3.org/1999/xlink" x="0px" y="0px"
	 viewBox="0 0 56.69 56.69" style="enable-background:new 0 0 56.69 56.69;" xml:space="preserve">
<style type="text/css">
	.st0{fill:#354A99;}
	.st1{fill-rule:evenodd;clip-rule:evenodd;fill:#FFFFFF;}
	.st2{clip-path:url(#SVGID_00000084506784980068894230000007440369964695130552_);fill:#009540;}
	.st3{clip-path:url(#SVGID_00000084506784980068894230000007440369964695130552_);fill:#559D8B;}
	.st4{clip-path:url(#SVGID_00000084506784980068894230000007440369964695130552_);fill:#80BA39;}
	.st5{clip-path:url(#SVGID_00000026870913169081576830000005246209045113022863_);fill:#B8CE34;}
</style>
<circle class="st0" cx="28.35" cy="28.35" r="25.51"/>
<g>
	<path class="st1" d="M42.67,35.46h-14.2v-5.69l0.07,0c0.13,0,0.27-0.01,0.4-0.02l0.86-0.09l0.02,0c1.35-0.21,2.51-0.67,3.28-1.31
		c0.06-0.05,0.12-0.11,0.18-0.16c0.09,0.02,0.18,0.03,0.27,0.05c0.23,0.03,0.46,0.05,0.68,0.05c1.28,0,2.49-0.5,3.39-1.41
		c0.91-0.91,1.41-2.11,1.41-3.39c0-0.44-0.06-0.88-0.18-1.31c-0.07-0.26-0.17-0.51-0.28-0.75c0.34-0.37,0.61-0.79,0.81-1.25
		c0.28-0.62,0.42-1.28,0.42-1.96c0-0.94-0.27-1.86-0.79-2.64c-0.45-0.68-1.06-1.23-1.77-1.61c-0.17-1.05-0.7-2.03-1.49-2.76
		c-0.89-0.82-2.04-1.27-3.25-1.27c-0.2,0-0.4,0.01-0.61,0.04c-0.07,0.01-0.13,0.02-0.2,0.03c-0.4-0.41-0.87-0.74-1.4-0.99
		c-0.64-0.3-1.35-0.46-2.04-0.46c-0.71,0-1.4,0.15-2.05,0.46c-0.52,0.25-0.99,0.58-1.39,0.99c-0.07-0.01-0.13-0.02-0.2-0.03
		C24.4,9.94,24.2,9.93,24,9.93c-1.21,0-2.36,0.45-3.25,1.27c-0.79,0.73-1.31,1.7-1.49,2.76c-0.72,0.38-1.33,0.93-1.77,1.61
		c-0.52,0.79-0.79,1.7-0.79,2.64c0,0.68,0.14,1.34,0.42,1.96c0.2,0.46,0.48,0.88,0.81,1.25c-0.12,0.24-0.21,0.49-0.28,0.75
		c-0.12,0.43-0.18,0.87-0.18,1.31c0,1.28,0.5,2.49,1.41,3.39c0.91,0.91,2.11,1.41,3.39,1.41c0.22,0,0.45-0.02,0.68-0.05
		c0.09-0.01,0.18-0.03,0.27-0.05c0.06,0.06,0.13,0.12,0.2,0.18c0.78,0.65,1.91,1.1,3.26,1.3l0.02,0l0.43,0v5.8h-13.1
		c-0.38,0-0.68,0.3-0.68,0.68c0,0.38,0.3,0.68,0.68,0.68h7.46v2.58h-4.14c-0.14-0.68-0.75-1.2-1.48-1.2c-0.83,0-1.51,0.68-1.51,1.51
		c0,0.83,0.68,1.51,1.51,1.51c0.72,0,1.33-0.52,1.48-1.2h4.45c0.17,0,0.31-0.14,0.31-0.31v-2.89h2.17v6.01h-2.86
		c-0.14-0.68-0.75-1.19-1.48-1.19c-0.83,0-1.51,0.67-1.51,1.5c0,0.83,0.68,1.51,1.51,1.51c0.73,0,1.33-0.51,1.48-1.2h3.17
		c0.17,0,0.31-0.14,0.31-0.31v-6.32h2.38v8.34c-0.68,0.14-1.2,0.75-1.2,1.48c0,0.83,0.68,1.51,1.51,1.51c0.83,0,1.51-0.68,1.51-1.51
		c0-0.73-0.52-1.33-1.2-1.48v-8.34h2.38v6.32c0,0.17,0.14,0.31,0.31,0.31h3.17c0.14,0.69,0.75,1.2,1.48,1.2
		c0.83,0,1.51-0.67,1.51-1.51c0-0.83-0.67-1.5-1.51-1.5c-0.72,0-1.33,0.51-1.48,1.19h-2.86v-6.01h2.17v2.89
		c0,0.17,0.14,0.31,0.31,0.31h4.45c0.14,0.68,0.75,1.2,1.48,1.2c0.83,0,1.51-0.68,1.51-1.51c0-0.83-0.68-1.51-1.51-1.51
		c-0.72,0-1.33,0.52-1.48,1.2h-4.14v-2.58h8.99c0.38,0,0.68-0.3,0.68-0.68C43.35,35.76,43.05,35.46,42.67,35.46z M28.22,28.46
		c-0.32,0-0.65-0.02-0.97-0.05c-0.03,0-0.06-0.01-0.09-0.01c-1.22-0.14-2.25-0.51-2.9-1.05c-0.12-0.1-0.23-0.21-0.32-0.32
		l-0.28-0.33l-0.41,0.12c-0.15,0.04-0.32,0.08-0.48,0.1c-0.16,0.02-0.33,0.03-0.49,0.03c-0.93,0-1.81-0.36-2.46-1.02
		c-0.66-0.66-1.02-1.53-1.02-2.46c0-0.33,0.04-0.65,0.13-0.95c0.09-0.31,0.22-0.6,0.39-0.88l0.29-0.47l-0.41-0.37
		c-0.36-0.33-0.66-0.73-0.86-1.18c-0.2-0.45-0.3-0.92-0.3-1.42c0-0.69,0.2-1.35,0.57-1.92c0.38-0.57,0.91-1.02,1.54-1.29l0.37-0.16
		l0.03-0.4c0.07-0.87,0.46-1.68,1.11-2.28c0.64-0.59,1.48-0.92,2.36-0.92c0.16,0,0.31,0.01,0.44,0.03c0.14,0.02,0.29,0.05,0.43,0.08
		l0.41,0.11l0.27-0.32c0.33-0.4,0.74-0.72,1.21-0.94c0.46-0.22,0.97-0.33,1.49-0.33c0.51,0,1.02,0.12,1.48,0.33
		c0.46,0.22,0.88,0.54,1.2,0.93l0.28,0.33l0.4-0.1c0.14-0.04,0.29-0.07,0.43-0.08c0.14-0.02,0.29-0.03,0.44-0.03
		c0.88,0,1.72,0.33,2.36,0.92c0.65,0.6,1.04,1.41,1.11,2.28l0.03,0.4L36.36,15c0.63,0.27,1.16,0.71,1.54,1.29
		c0.38,0.57,0.57,1.23,0.57,1.92c0,0.5-0.1,0.98-0.3,1.42c-0.2,0.44-0.5,0.85-0.86,1.18l-0.41,0.37l0.29,0.47
		c0.17,0.27,0.3,0.57,0.39,0.88c0.09,0.31,0.13,0.63,0.13,0.95c0,0.93-0.36,1.81-1.02,2.46c-0.66,0.66-1.53,1.02-2.46,1.02
		c-0.17,0-0.34-0.01-0.49-0.03c-0.17-0.02-0.33-0.06-0.48-0.1l-0.41-0.12l-0.28,0.33c-0.09,0.1-0.19,0.2-0.3,0.3
		c-0.65,0.54-1.69,0.92-2.93,1.06c-0.01,0-0.03,0-0.04,0c-0.35,0.04-0.7,0.06-1.04,0.06L28.22,28.46z"/>
	<path class="st1" d="M28.18,12.89c-0.43-0.12-0.84-0.18-1.22-0.18c-2.03,0-2.82,1.62-3.09,2.48c-0.05,0-0.09,0-0.14,0
		c-1.24,0-2.1,0.6-2.6,1.1c-0.28,0.28-0.54,0.62-0.73,0.98c-0.17,0.31-0.29,0.63-0.34,0.88c-0.06,0.34,0.01,0.63,0.2,0.82
		c0.12,0.12,0.29,0.19,0.46,0.19c0.18,0,0.34-0.07,0.46-0.19c0.17-0.17,0.23-0.4,0.17-0.63c0.03-0.12,0.1-0.29,0.19-0.45
		c0.13-0.24,0.31-0.48,0.51-0.68c0.33-0.33,0.88-0.72,1.69-0.72c0.16,0,0.33,0.02,0.5,0.05c0.04,0.01,0.08,0.01,0.12,0.01
		c0.24,0,0.46-0.14,0.58-0.34l0.04,0.01l0.03-0.22c0.01-0.08,0.3-1.97,2.02-1.97c0.25,0,0.52,0.04,0.81,0.12
		c0.06,0.01,0.11,0.02,0.17,0.02c0.3,0,0.56-0.2,0.63-0.49c0.05-0.17,0.02-0.35-0.07-0.5C28.49,13.04,28.35,12.93,28.18,12.89z"/>
</g>
<g>
	<g>
		<defs>
			<rect id="SVGID_1_" x="-65.74" y="76.46" width="246.61" height="58.4"/>
		</defs>
		<clipPath id="SVGID_00000100352036384148911760000016967037581440858290_">
			<use xlink:href="#SVGID_1_"  style="overflow:visible;"/>
		</clipPath>
		<path style="clip-path:url(#SVGID_00000100352036384148911760000016967037581440858290_);fill:#009540;" d="M181.72,78.01
			c0,0-12.2,4.67-17.97,9.17c-1.86,1.45-4.65,5.66-10.53,5.74c-5.88,0.08-7.14-0.27-9.06-1.07c-1.92-0.79-6.74-5.73-14.85-5.57
			c-8.02,0.16-12.57,3.86-18.55,4.71c-5.98,0.85-13.64-0.11-25.71-1.92c-12.07-1.81-11.19,2.37-18.24,2.34
			c-7.05-0.03-12.61-1.56-16.56-3.83c-3.95-2.27-7.48-7.26-13.98-7.27c-6.72,0.09-8.64,4.67-12.45,4.75
			c-3.81,0.07-8.27-6.22-13.02-6.22c-4.11,0-5.5,1.39-7.21,2.62c-3.19,2.53-7.26,8.82-12.29,8.76c-5.02-0.05-12.69-9.26-19.68-9.26
			c-7.1,0-14.11,8.67-18.06,9.58c-3.95,0.9-4.27,1.15-6.73,0.49c-2.46-0.66-11.34-4.74-13.26-7.61v32.97h248.15V78.01z"/>
		<path style="clip-path:url(#SVGID_00000100352036384148911760000016967037581440858290_);fill:#559D8B;" d="M181.72,83.67
			c0,0-6.91-0.74-9.99,1.83c-3.09,2.57-8.14,5.72-11.23,7s-8.14,2.86-11.23,3.5c-3.09,0.64-8.14-0.7-11.23-2.98
			c-3.09-2.28-8.14-2.8-11.23-1.17c-3.09,1.64-8.14,2.98-11.23,2.98h-11.23H93.12c-3.09,0-7.22-0.26-10.31-0.58
			c-3.09-0.32-5.2-3.91-7.44-6.44c-2.24-2.53-7.12-10.89-12.4-10.7c-6.19,0.22-11.68,8.1-14.77,11.3c-3.09,3.21-7.27,3.21-10.36,0
			c-3.09-3.21-7.56-4.52-10.65-3.62c-3.09,0.9-9.24,3.94-12.33,0.8C11.77,82.44,9.9,80.68,4.5,80.8
			C-1.53,80.94-9.27,91.97-9.27,91.97c-3.11,3.15-6.81,2.19-9.9-0.06c-3.09-2.25-8.45-4.5-11.53-4.5s-8.71,2.09-11.8,4.34
			c-3.41,2.07-7.3,1.41-10.36,0.68c-7.13-1.69-8.35-3.38-11.44-4.76c-3.09-1.38-2.34-1.07-2.34-1.07l0.21,29.57l248.15,0.02V83.67z"
			/>
		<path style="clip-path:url(#SVGID_00000100352036384148911760000016967037581440858290_);fill:#80BA39;" d="M-66.47,113.78
			l248.2,0.35v-29.5h-9.47c-3.54,0-9.33,0.13-12.87,0.3c-3.54,0.16-9.33,2.33-12.87,4.8c-3.54,2.48-9.33,4.5-12.87,4.5
			s-9.33-1.05-12.87-2.33c-3.54-1.28-9.33-2.7-12.87-3.15c-3.54-0.45-9.33-0.83-12.87-0.83c-3.54,0-9.37,0.14-12.87,0.83
			c-3.6,0.7-10.11,5.47-14.41,7.66c-4.3,2.18-7.79,4.23-11.33,3.2c-3.54-1.03-9.04-1.26-12.21-4.04l-1.31-1.15
			c-3.18-2.78-8.67-6.94-12.21-9.25c-3.54-2.31-9.33-2.31-12.87,0c-3.54,2.31-9.33,6.29-12.87,8.85c-3.54,2.56-9.2,2.89-12.74,3.3
			c-3.54,0.41-9.46,0.79-13-1.73c-3.54-2.52-9.33-4.58-12.87-4.58c-3.54,0-8.88,2.17-11.86,4.96l-2.01,1.56
			c-2.99,2.78-8.32,0.47-11.86-0.32c-1.7-0.38-7.02-0.74-7.02-0.77L-66.47,113.78z"/>
	</g>
	<rect x="-65.74" y="107.49" class="st0" width="132.45" height="7.53"/>
	<g>
		<defs>
			<rect id="SVGID_00000120518625991842183390000015845595827782293922_" x="-65.74" y="76.46" width="246.61" height="58.4"/>
		</defs>
		<clipPath id="SVGID_00000174559773328052320170000006089387081460342440_">
			<use xlink:href="#SVGID_00000120518625991842183390000015845595827782293922_"  style="overflow:visible;"/>
		</clipPath>
		<path style="clip-path:url(#SVGID_00000174559773328052320170000006089387081460342440_);fill:#B8CE34;" d="M181.72,99.23
			c0,0-4.98-2.25-8.07-4.27c-3.09-2.02-7.22-3.8-10.31-4.85c-3.09-1.06-5.42-1.29-10.02-0.46c-4.6,0.82-9.83,4.93-12.92,6.99
			c-3.09,2.07-6.06,2.3-11.23-0.17c-5.17-2.47-15.33-2.31-22.33-1.57c-3.09,0.53-9.8,2.27-11.82,5.35
			c-3.43,5.21-5.4,5.33-10.94,1.28c-5.54-4.05-6.8-5.48-11.97-5.24c-4.38,0.2-9.04,5.56-12.61,7.68c-3.57,2.11-4.73,3.29-9.43,0.7
			c-4.7-2.6-8.15-2.53-11.23-2.53c-3.09,0-8.15,0.39-11.24,0.87c-3.09,0.48-8.15,1.62-11.23,2.53c-3.09,0.91-8.15,2.91-11.24,3.72
			c-3.09,0.82-8.14,1.48-11.23,1.48c-3.09,0-8.15-0.31-11.24-0.7c-3.09-0.38-8.14-2.38-11.23-3.72c-3.09-1.34-8.15,0.41-11.24,2.14
			c-3.09,1.73-8.14,1.73-11.23,0c-3.09-1.73-8.15-3.17-11.23-1.44c-3.33,0.65-4.15,0.41-4.15,0.41v70.84h248.15V99.23z"/>
	</g>
</g>
</svg>
